<svg xmlns="http://www.w3.org/2000/svg" enable-background="new 0 0 600 600" viewBox="0 0 600 600"><path fill="#e7f7ff" d="M66.13 323.282a42.168 42.168 0 0 0-17.146 3.609 185.555 185.555 0 0 0 4.805 20.927 21.754 21.754 0 0 1 12.341-3.802c12.13 0 21.952 9.823 21.952 21.952 0 10.762-7.73 19.71-17.937 21.567a195.409 195.409 0 0 0 11.253 18.278c16.015-6.15 27.418-21.695 27.418-39.845 0-23.532-19.154-42.686-42.686-42.686zM506.673 377.179c0 19.346 12.92 35.724 30.6 40.934a96.997 96.997 0 0 0 11.103-19.004c-11.659-.492-20.99-10.122-20.99-21.93 0-12.108 9.844-21.952 21.951-21.952 2.328 0 4.548.364 6.663 1.025a99.332 99.332 0 0 0-3.822-21.631 31.239 31.239 0 0 0-2.84-.107c-23.532 0-42.665 19.133-42.665 42.665z" class="colore9e7ff svgShape"/><path fill="#e7f7ff" d="M45.599 318.203c5.718-2.246 11.93-3.462 18.442-3.462 28.25 0 51.225 22.975 51.225 51.225 0 20.997-12.682 39.079-30.805 46.94 11.714 15.454 25.747 29.25 41.675 40.572h361.576c16.082-5.687 30.475-15.64 41.726-28.281-19.472-7.233-33.391-26.025-33.391-48.021 0-28.189 22.913-51.143 51.07-51.205-6.418-16.33-17.102-31.042-31.176-41.87-32.67-25.119-78.146-28.312-112.506-51.144-19.606-13.022-34.226-31.516-49.412-49.515-9.242 9.16-21.996 14.836-36.019 14.836-28.26 0-51.235-22.975-51.235-51.225 0-8.562 2.122-16.64 5.852-23.728-42.664-14.516-91.54-12.25-131.474 8.737-34.535 18.144-61.477 47.682-78.105 82.227a180.676 180.676 0 0 0-5.07 11.488v.01c-2.348 5.79-4.399 11.704-6.15 17.7v.01a184.873 184.873 0 0 0-3.142 12.168 185.298 185.298 0 0 0-4.348 33.515c-.36 9.695.082 19.41 1.267 29.023z" class="colore9e7ff svgShape"/><circle cx="312.407" cy="152.731" r="24.957" fill="#e7f7ff" class="colore9e7ff svgShape"/><path fill="#fff" d="M367.664 453.478h40.52a24.748 24.748 0 0 0 3.916-8.376c3.42-13.352-4.626-26.952-17.979-30.372-13.352-3.421-26.952 4.636-30.372 17.988-1.906 7.45-.247 14.97 3.915 20.76z" class="colorffffff svgShape"/><circle cx="387.924" cy="438.908" r="12.782" fill="#e7f7ff" class="colore9e7ff svgShape"/><circle cx="428.711" cy="317.882" r="15.062" fill="#fff" class="colorffffff svgShape"/><circle cx="428.711" cy="317.882" r="7.714" fill="#e7f7ff" class="colore9e7ff svgShape"/><circle cx="327.472" cy="265.643" r="15.062" fill="#fff" class="colorffffff svgShape"/><circle cx="327.472" cy="265.643" r="7.714" fill="#e7f7ff" class="colore9e7ff svgShape"/><circle cx="259.016" cy="361.185" r="15.062" fill="#fff" class="colorffffff svgShape"/><circle cx="259.016" cy="361.185" r="7.714" fill="#e7f7ff" class="colore9e7ff svgShape"/><path fill="#fff" d="M48.68 255.665a22.467 22.467 0 0 0 7.036 3.153c12.116 3.1 24.46-4.204 27.56-16.32 3.112-12.116-4.203-24.459-16.32-27.56a21.737 21.737 0 0 0-3.914-.65 180.676 180.676 0 0 0-5.07 11.489v.01c-2.348 5.79-4.399 11.704-6.15 17.7v.01a184.873 184.873 0 0 0-3.142 12.168z" class="colorffffff svgShape"/><path fill="#e7f7ff" d="M51.822 243.487v.01a11.498 11.498 0 0 0 6.635 4.616c6.212 1.586 12.528-2.153 14.125-8.356 1.587-6.212-2.153-12.528-8.366-14.115a11.548 11.548 0 0 0-6.243.135v.01c-2.35 5.79-4.4 11.704-6.151 17.7z" class="colore9e7ff svgShape"/><circle cx="190.23" cy="238.45" r="15.062" fill="#fff" class="colorffffff svgShape"/><circle cx="190.23" cy="238.45" r="7.714" fill="#e7f7ff" class="colore9e7ff svgShape"/><circle cx="142.844" cy="286.804" r="11.928" fill="#fff" class="colorffffff svgShape"/><circle cx="142.844" cy="286.804" r="6.109" fill="#e7f7ff" class="colore9e7ff svgShape"/><circle cx="131.614" cy="215.478" r="11.928" fill="#fff" class="colorffffff svgShape"/><circle cx="131.614" cy="215.478" r="6.109" fill="#e7f7ff" class="colore9e7ff svgShape"/><circle cx="422.439" cy="380.56" r="11.928" fill="#fff" class="colorffffff svgShape"/><circle cx="422.439" cy="380.56" r="6.109" fill="#e7f7ff" class="colore9e7ff svgShape"/><path fill="#0a3348" d="m183.002 472.188.175 12.163c.013.84.624 1.506 1.371 1.495l28.922-.417c.763-.01 1.369-.728 1.327-1.583-.062-1.233-.202-2.796-.588-3.136-6.21-5.474-12.01-3.728-12.824-6.334-.815-2.606-1.165-5.515-1.165-5.515s-16.24-.029-17.218 3.327z" class="color100a48 svgShape"/><path fill="#ade4ff" d="m190.976 259.265.533 14.363c.202.295 14.363 2.38 15.617-6.411 1.207-8.463-5.064-10.19-5.064-10.19s9.009-11.75 6.576-13.669c-2.433-1.907-11.703 11.143-11.703 11.143s.3-3.327-1.117-4.645c-1.429-1.307-4.842 9.409-4.842 9.409z" class="colorffadaf svgShape"/><path fill="#2eb9ff" d="M116.479 296.45s10.214 17.937 33.05 18.973c.486.02.972.019 1.457-.024 20.002-1.304 47.3-39.666 47.3-39.666.702-2.933-4.176-16.875-7.543-17.165l-31.675 21.483c-10.97-9.993-22.768-25.514-28.423-28.218l-.767 2.41-13.4 42.208z" class="colorff2e56 svgShape"/><path fill="#1479ab" d="M116.479 296.45s10.214 17.937 33.05 18.973c.486.02.972.019 1.457-.024-4.607-1.534-8.953-4.23-11.633-8.26-3.156-4.746-3.695-10.787-3.23-16.46.465-5.682 1.839-11.261 2.124-16.955.123-2.376.044-4.784-.362-7.128-.821-4.751-3.083-11.253-8.007-12.353l-13.4 42.208z" class="colorab1447 svgShape"/><path fill="#215671" d="M126.134 331.706s54.352 13.925 70.325 34.215c11.115 14.12 12.363 102.048 9.427 103.733s-23.476 5.669-27.891 2.317c-4.416-3.35-11.622-90.677-19.82-95.911-8.198-5.235-61.265-23.606-61.265-23.606l1.217-23.535 15.32-4.63 12.687 7.417z" class="color352171 svgShape"/><path fill="#0a3348" d="m115.618 456.746-7.206 9.8c-.498.677-.413 1.577.19 2.02l23.303 17.135c.614.452 1.53.246 2.013-.46.696-1.021 1.528-2.35 1.425-2.855-1.643-8.114-7.32-10.225-6.395-12.794.924-2.569 2.402-5.099 2.402-5.099s-12.926-9.83-15.732-7.747z" class="color100a48 svgShape"/><path fill="#2b7296" d="M61.545 339.225s-7.178 35.31 9.78 47.649c5.183 3.771 63.282.572 63.282.572s-21.948 67.683-21.472 69.547c.607 2.375 21.076 16.287 27.872 13.05 6.189-2.947 45.95-83.256 41.484-103.694-5.003-22.893-73.439-35.697-74.428-35.412s-46.518 8.288-46.518 8.288z" class="color452b96 svgShape"/><path fill="#2eb9ff" d="M126.806 304.665c-.8 2.711-.72 6.142-.28 9.622.84 6.811 3.1 13.833 2.98 16.103-.7 14.302-45.487 17.673-62.79 14.122-3.91-.8-6.41-1.95-6.7-3.41-2.591-13.032 4.04-66.872 13.821-84.845.21-.4.44-.78.66-1.14 7.372-12.162 58.34-17.293 61.19 6.211.751 6.141-3.07 22.084-5.99 32.996-1.32 4.93-2.45 8.841-2.89 10.341z" class="colorff2e56 svgShape"/><path fill="#1479ab" d="M126.806 304.665c-.8 2.711-.72 6.142-.28 9.622-.16.37-.34.73-.52 1.09-4.67 9.252-15.412 15.043-25.714 13.853-4.28-.5-8.362-2.06-12.622-2.77-4.251-.72-8.992-.45-12.322 2.29-3.42 2.8-4.531 7.44-6.221 11.522-.61 1.46-1.41 2.95-2.41 4.24-3.911-.8-6.412-1.95-6.702-3.41-2.59-13.032 4.04-66.872 13.822-84.845 5.561-1.05 10.442-5.83 16.103-3.63 5.641 2.18 10.512 6.741 13.272 12.112 2.51 4.92 3.37 10.532 5.441 15.663 2.06 5.14 5.901 10.171 11.362 11.101 1.79.31 3.64.15 5.431.42 1.66.25 3.38.99 4.25 2.4-1.32 4.932-2.45 8.842-2.89 10.342z" class="colorab1447 svgShape"/><path fill="#ade4ff" d="M149.569 299.672c-3.568 8.15 4.596 1.48 8.023-.648.061-.203.918-2.976-.438-3.986-1.401-1.053-7.585 4.634-7.585 4.634z" class="colorffadaf svgShape"/><path fill="#2c5d76" d="m153.928 315.428 13.906-.025a2.94 2.94 0 0 0 2.832-2.171l6.282-23.199a2.94 2.94 0 0 0-2.843-3.708l-13.906.025a2.94 2.94 0 0 0-2.833 2.172l-6.281 23.198a2.94 2.94 0 0 0 2.843 3.708z" class="color2c2c76 svgShape"/><path fill="#ade4ff" d="M148.875 309.902s15.57 3.15 17.157-7.623c1.562-10.578-12.089-3.068-12.454-2.803l-4.033.325-.67 10.1z" class="colorffadaf svgShape"/><path fill="#2eb9ff" d="M76.365 252.843c-14.275 11.455-12.317 63.046 13.139 72.982 17.71 6.914 58.534-11.593 58.534-11.593 1.06.084 2.383-16.593 1.324-16.677l-43.09-.953s-9.706-59.97-29.907-43.76z" class="colorff2e56 svgShape"/><path fill="#ade4ff" d="M102.957 238.003s2.736 2.889 6.336 4.145c1.659.572 3.497.8 5.333.239 3.407-1.045 3.511-10.156 2.22-15.985-.648-2.91-1.631-5.003-2.73-4.88-3.305.375-11.008 9.783-11.008 9.783s-3.344-1.686-4.069.823c-.887 3.102 3.918 5.875 3.918 5.875z" class="colorffadaf svgShape"/><path fill="#ade4ff" d="M98.664 245.41s3.212 6.226 7.5 6.462c4.31.235 4.312-4.476 3.368-6.47a1.996 1.996 0 0 1-.148-.465c-.256-1.087-.09-2.788-.09-2.788-3.604-1.26-6.334-4.15-6.334-4.15-.262 1.215-.956 2.6-1.725 3.837-1.2 1.967-2.57 3.575-2.57 3.575z" class="colorffadaf svgShape"/><path fill="#93dbff" d="M102.96 238c.102 3.854 6.424 6.937 6.424 6.937-.256-1.087-.09-2.788-.09-2.788-3.604-1.26-6.334-4.15-6.334-4.15z" class="colorff9396 svgShape"/><path fill="#0b364c" d="M93.396 231.374c-2.515 5.123 7.842 10.462 7.842 10.462.762-1.238 1.464-2.622 1.719-3.833 0 0-4.805-2.773-3.918-5.875.725-2.509 4.069-.823 4.069-.823s1.015.978 2.341.823c1.044-.002 2.893-5.171 4.55-5.698.609-.19 5.561.619 6.848-.028 2.23-1.12 4.829-3.074 5.501-6.364 1.073-5.18-6.041-2.608-9.869-5.959-3.827-3.35-3.267 2.376-9.22 1.494-5.943-.882-9.014 5.984-9.014 5.984-6.935 1.318-.849 9.817-.849 9.817z" class="color300b4c svgShape"/><path fill="#3793c1" d="m51.71 485.846 25.767-85.398h52.09l25.767 85.398h4.903l-27.388-90.769H74.195l-27.388 90.77z" class="color6737c1 svgShape"/><path fill="#6cf" d="M145.357 395.077H55.419a3.554 3.554 0 0 1-3.554-3.554v-.776a3.554 3.554 0 0 1 3.554-3.554h89.938a3.554 3.554 0 0 1 3.554 3.554v.776a3.554 3.554 0 0 1-3.554 3.554z" class="color8f6dff svgShape"/><path fill="#6cf" d="m51.576 391.447-7.564-94.068a3.942 3.942 0 1 1 7.86-.6c5.51 29.796 7.54 57.26 7.565 94.068a3.942 3.942 0 0 1-3.63 4.23l-.105.015c-2.103.56-3.96-1.474-4.126-3.645z" class="color8f6dff svgShape"/><path fill="#52b4e5" d="M410.209 311.647c-2.532 0-5.088-.066-7.6-.196a.5.5 0 0 1-.473-.526.508.508 0 0 1 .526-.473c2.494.13 5.033.195 7.547.195h.423a.5.5 0 0 1 .001 1h-.424zm8.419-.24a.5.5 0 0 1-.029-1c2.636-.15 5.309-.374 7.945-.666a.5.5 0 0 1 .11.994 151.038 151.038 0 0 1-8.026.672zm15.893-1.76a.5.5 0 0 1-.08-.994c2.608-.43 5.243-.936 7.83-1.504a.5.5 0 1 1 .215.977 153 153 0 0 1-7.883 1.514.516.516 0 0 1-.082.006zm15.621-3.43a.501.501 0 0 1-.133-.982 152.202 152.202 0 0 0 7.628-2.318.5.5 0 1 1 .317.95c-2.523.839-5.106 1.624-7.679 2.332a.503.503 0 0 1-.133.018zm15.175-5.05a.5.5 0 0 1-.183-.966 150.61 150.61 0 0 0 7.341-3.108.5.5 0 0 1 .414.91c-2.414 1.1-4.9 2.152-7.39 3.13a.496.496 0 0 1-.182.034zm14.557-6.625a.5.5 0 0 1-.232-.943 147.929 147.929 0 0 0 6.967-3.875.501.501 0 0 1 .51.86 149.043 149.043 0 0 1-7.014 3.901.5.5 0 0 1-.231.057zm13.758-8.15a.5.5 0 0 1-.279-.916c2.26-1.512 4.442-3.07 6.485-4.629a.501.501 0 0 1 .607.795 129.702 129.702 0 0 1-6.535 4.665.501.501 0 0 1-.278.085zm12.692-9.724a.5.5 0 0 1-.332-.874 93.185 93.185 0 0 0 5.73-5.519.5.5 0 0 1 .724.69 94.447 94.447 0 0 1-5.79 5.577.5.5 0 0 1-.332.126zm10.984-11.603a.5.5 0 0 1-.395-.807 70.419 70.419 0 0 0 4.518-6.528.5.5 0 1 1 .854.52 71.377 71.377 0 0 1-4.582 6.622.5.5 0 0 1-.395.193zm8.27-13.65a.5.5 0 0 1-.457-.703 56.678 56.678 0 0 0 2.693-7.45.5.5 0 0 1 .963.273 57.872 57.872 0 0 1-2.742 7.583.5.5 0 0 1-.457.297zm4.343-15.344a.501.501 0 0 1-.497-.565c.288-2.192.434-4.398.435-6.556 0-.449-.006-.897-.019-1.345a.5.5 0 0 1 .487-.514.493.493 0 0 1 .513.486c.013.457.019.915.019 1.373a51.82 51.82 0 0 1-.443 6.686.5.5 0 0 1-.495.435zm-.498-15.917a.5.5 0 0 1-.488-.399 40.787 40.787 0 0 0-2.336-7.535.5.5 0 0 1 .922-.39 41.805 41.805 0 0 1 2.393 7.722.5.5 0 0 1-.49.602zm-266.486-8.69c-.925 0-1.85-.005-2.774-.017a.5.5 0 0 1 .007-1h.006c2.66.035 5.32.02 7.979-.048h.013a.5.5 0 0 1 .012 1c-1.747.044-3.496.066-5.243.066zm-10.763-.27h-.025a227.908 227.908 0 0 1-7.999-.542.5.5 0 0 1-.455-.54.506.506 0 0 1 .541-.456c2.66.226 5.339.408 7.964.539a.5.5 0 0 1-.026 1zm23.984-.155a.5.5 0 0 1-.031-.999c2.658-.173 5.333-.402 7.95-.682.27-.029.52.17.55.445s-.17.52-.445.55a194.723 194.723 0 0 1-8.024.686zm-39.921-1.201a.56.56 0 0 1-.06-.004 250.463 250.463 0 0 1-7.943-1.08.5.5 0 1 1 .15-.99c2.642.403 5.303.765 7.912 1.077a.5.5 0 0 1-.059.997zm55.826-.501a.5.5 0 0 1-.073-.994 182.232 182.232 0 0 0 7.86-1.358.5.5 0 0 1 .192.981 182.081 182.081 0 0 1-7.903 1.365.487.487 0 0 1-.076.006zm-71.64-1.909a.515.515 0 0 1-.092-.008c-2.6-.48-5.245-1.01-7.859-1.573a.5.5 0 0 1 .211-.978 267.07 267.07 0 0 0 7.83 1.568.5.5 0 0 1-.09.991zm87.34-1.143a.5.5 0 0 1-.115-.987 234.695 234.695 0 0 0 7.734-1.973.5.5 0 0 1 .264.965c-2.637.719-5.25 1.386-7.767 1.981a.495.495 0 0 1-.116.014zm215.492-.783a.5.5 0 0 1-.416-.223 51.797 51.797 0 0 0-4.9-6.215.5.5 0 0 1 .738-.676 52.817 52.817 0 0 1 4.995 6.336.5.5 0 0 1-.417.778zm-318.474-1.443a.503.503 0 0 1-.12-.014 293.35 293.35 0 0 1-7.755-2.021.5.5 0 1 1 .266-.965c2.576.71 5.175 1.387 7.728 2.015a.5.5 0 0 1-.12.985zm118.42-1.97a.5.5 0 0 1-.145-.98c2.43-.736 4.992-1.547 7.617-2.41a.5.5 0 0 1 .312.95 357.735 357.735 0 0 1-7.638 2.418.506.506 0 0 1-.145.022zm-133.845-2.274a.498.498 0 0 1-.145-.022 328.63 328.63 0 0 1-7.635-2.428.5.5 0 1 1 .314-.95 326.67 326.67 0 0 0 7.612 2.421.5.5 0 0 1-.146.979zm149.049-2.705a.501.501 0 0 1-.164-.972 715.095 715.095 0 0 0 7.537-2.67.5.5 0 1 1 .338.94 706.97 706.97 0 0 1-7.547 2.675.501.501 0 0 1-.164.027zm-164.236-2.327a.495.495 0 0 1-.168-.03 365.255 365.255 0 0 1-7.513-2.78.5.5 0 0 1 .357-.934 365.32 365.32 0 0 0 7.492 2.773.5.5 0 0 1-.168.971zm338.381-1.106a.5.5 0 0 1-.326-.12 85.976 85.976 0 0 0-5.261-4.162c-.335-.245-.672-.488-1.01-.729a.5.5 0 0 1 .58-.814c.342.243.68.488 1.02.736a87.152 87.152 0 0 1 5.324 4.21.5.5 0 0 1-.327.88zm-159.084-1.973a.5.5 0 0 1-.171-.97l7.51-2.758a.501.501 0 0 1 .343.939l-7.51 2.758a.497.497 0 0 1-.172.03zm-194.24-2.633a.5.5 0 0 1-.19-.037 413.18 413.18 0 0 1-7.389-3.087.5.5 0 0 1 .395-.919 413.017 413.017 0 0 0 7.372 3.08.5.5 0 0 1-.189.963zm209.266-2.865a.501.501 0 0 1-.17-.97 745.578 745.578 0 0 1 7.543-2.68.498.498 0 0 1 .637.308.498.498 0 0 1-.308.636 740.944 740.944 0 0 0-7.532 2.676.501.501 0 0 1-.17.03zm131.062-1.83a.499.499 0 0 1-.256-.072 103.689 103.689 0 0 0-6.975-3.835.5.5 0 0 1 .447-.894 104.496 104.496 0 0 1 7.043 3.872.5.5 0 0 1-.259.928zM144.52 182.77a.499.499 0 0 1-.205-.045 481.996 481.996 0 0 1-7.275-3.346.499.499 0 1 1 .425-.905 479.922 479.922 0 0 0 7.26 3.34.5.5 0 0 1-.205.956zm239.084-1.814a.5.5 0 0 1-.156-.975 349.072 349.072 0 0 1 7.638-2.42.5.5 0 0 1 .291.957 350.084 350.084 0 0 0-7.617 2.412.498.498 0 0 1-.156.026zm101.658-3.738a.491.491 0 0 1-.188-.038 104.192 104.192 0 0 0-7.48-2.722.5.5 0 1 1 .304-.952c2.54.815 5.081 1.74 7.553 2.748a.5.5 0 0 1-.189.964zm-86.345-.901a.5.5 0 0 1-.132-.983 246.12 246.12 0 0 1 7.764-1.992.5.5 0 1 1 .232.973c-2.509.599-5.111 1.266-7.733 1.984a.496.496 0 0 1-.131.018zm-268.88-.347a.499.499 0 0 1-.219-.05 589.397 589.397 0 0 1-7.17-3.563.5.5 0 1 1 .451-.892 587.467 587.467 0 0 0 7.158 3.556.5.5 0 0 1-.22.949zm284.442-3.354a.5.5 0 0 1-.097-.99c2.672-.532 5.33-1.001 7.899-1.396a.5.5 0 0 1 .152.988c-2.555.393-5.198.86-7.855 1.388a.52.52 0 0 1-.099.01zm55.563-.282a.502.502 0 0 1-.116-.014 102.786 102.786 0 0 0-7.808-1.535.5.5 0 0 1-.417-.572.51.51 0 0 1 .571-.416 104.03 104.03 0 0 1 7.885 1.55.5.5 0 0 1-.115.987zm-39.753-2.134a.5.5 0 0 1-.051-.997c2.701-.279 5.394-.483 8.005-.607a.5.5 0 0 1 .047 1c-2.592.122-5.266.325-7.949.602a.477.477 0 0 1-.052.002zm23.965-.355c-.015 0-.029 0-.042-.002a117.844 117.844 0 0 0-7.955-.382.5.5 0 0 1 .006-1h.007c2.706.04 5.405.169 8.024.385a.5.5 0 0 1-.04.999zm-338.498-1.085a.496.496 0 0 1-.231-.056 718.676 718.676 0 0 1-7.08-3.736.5.5 0 1 1 .47-.882c2.351 1.256 4.708 2.5 7.071 3.73a.5.5 0 0 1-.23.944zm-14.114-7.539a.5.5 0 0 1-.24-.061c-2.34-1.28-4.676-2.57-7.006-3.87a.5.5 0 1 1 .486-.873 974.948 974.948 0 0 0 7 3.866.5.5 0 0 1-.24.938zm-13.976-7.788a.496.496 0 0 1-.246-.065l-.955-.541a.5.5 0 0 1 .492-.87l.955.54a.5.5 0 0 1-.246.936z" class="color5652e5 svgShape"/><path fill="#2b7296" d="M425.627 167.803v266.355c0 1.46-.16 2.89-.46 4.26-.47 2.17-1.3 4.211-2.42 6.051-3.491 5.751-9.822 9.602-17.054 9.602H257.878c-7.95 0-14.812-4.66-18.003-11.392-.34-.71-.64-1.45-.89-2.2-.66-1.99-1.02-4.111-1.02-6.321V167.803c0-11.002 8.922-19.924 19.913-19.924h147.815c11.012 0 19.934 8.922 19.934 19.924z" class="color452b96 svgShape"/><path fill="#6cf" d="M242.53 433.641V181.633c0-8.766 7.106-15.872 15.872-15.872h146.774c8.767 0 15.873 7.106 15.873 15.872v252.008c0 8.767-7.106 15.873-15.872 15.873H258.402c-8.766 0-15.873-7.107-15.873-15.873z" class="color8f6dff svgShape"/><path d="M401.327 306.999h-135.79a4.796 4.796 0 0 1-4.796-4.796V281.7a4.796 4.796 0 0 1 4.796-4.796h135.79a4.796 4.796 0 0 1 4.796 4.796v20.503a4.796 4.796 0 0 1-4.796 4.796zM401.327 347.747h-135.79a4.796 4.796 0 0 1-4.796-4.796v-20.503a4.796 4.796 0 0 1 4.796-4.796h135.79a4.796 4.796 0 0 1 4.796 4.796v20.503a4.796 4.796 0 0 1-4.796 4.796zM372.553 392.495h-75.78a4.796 4.796 0 0 1-4.796-4.795v-24.504a4.796 4.796 0 0 1 4.796-4.796h75.78a4.796 4.796 0 0 1 4.796 4.796V387.7a4.796 4.796 0 0 1-4.796 4.795z" class="color000000 svgShape" opacity=".1"/><path fill="#fff" d="M317.457 158.736c0 1.39-1.12 2.52-2.52 2.52-1.39 0-2.52-1.13-2.52-2.52 0-1.4 1.13-2.52 2.52-2.52 1.4 0 2.52 1.12 2.52 2.52zM353.675 158.736a1.33 1.33 0 0 1-1.326 1.326H321.96c-.729 0-1.326-.597-1.326-1.326s.597-1.326 1.326-1.326h30.39a1.33 1.33 0 0 1 1.325 1.326z" class="colorffffff svgShape"/><circle cx="334.004" cy="227.199" r="33.085" class="color000000 svgShape" opacity=".1"/><circle cx="330.559" cy="223.664" r="33.085" fill="#fff" class="colorffffff svgShape"/><circle cx="330.612" cy="211.607" r="8.823" fill="#2eb9ff" class="colorff2e56 svgShape"/><path fill="#2eb9ff" d="M350.194 241.347c-.793-10.157-9.238-18.171-19.603-18.19-10.364-.019-18.838 7.965-19.669 18.119l39.272.071z" class="colorff2e56 svgShape"/><path fill="#3793c1" d="M398.453 303.764h-135.79a4.796 4.796 0 0 1-4.796-4.796v-20.503a4.796 4.796 0 0 1 4.796-4.795h135.79a4.796 4.796 0 0 1 4.796 4.795v20.503a4.796 4.796 0 0 1-4.796 4.796z" class="color6737c1 svgShape"/><path d="M327.472 290.277c0 .77-.31 1.46-.82 1.96-.5.51-1.19.82-1.96.82h-52.364a2.78 2.78 0 0 1-2.78-2.78 2.78 2.78 0 0 1 2.78-2.79h52.364a2.79 2.79 0 0 1 2.78 2.79z" class="color000000 svgShape" opacity=".1"/><path fill="#3793c1" d="M398.453 344.512h-135.79a4.796 4.796 0 0 1-4.796-4.796v-20.503a4.796 4.796 0 0 1 4.796-4.796h135.79a4.796 4.796 0 0 1 4.796 4.796v20.503a4.796 4.796 0 0 1-4.796 4.796z" class="color6737c1 svgShape"/><path d="M291.27 337.525a1.218 1.218 0 0 1-.405-.92c0-.12.24-1.705.718-4.757-2.394 1.945-3.65 2.947-3.77 3.007-.18.09-.374.134-.583.134-.509 0-.913-.224-1.212-.673a1.415 1.415 0 0 1-.18-.718c0-.508.21-.868.63-1.077l4.487-1.75-4.488-1.75c-.42-.24-.628-.614-.628-1.122 0-.27.06-.509.18-.719.298-.449.687-.673 1.166-.673.21 0 .419.06.629.18.119.06 1.375 1.062 3.77 3.007-.48-3.052-.719-4.638-.719-4.757 0-.36.135-.666.404-.92a1.33 1.33 0 0 1 .943-.382c.359 0 .673.128.942.382.27.254.404.56.404.92 0 .12-.24 1.705-.718 4.757 2.393-1.945 3.65-2.947 3.77-3.008.149-.119.359-.179.628-.179.478 0 .867.224 1.167.673.119.24.18.465.18.674 0 .508-.21.897-.629 1.166l-4.488 1.75 4.488 1.75c.419.24.628.614.628 1.123 0 .21-.06.434-.18.673-.299.449-.702.673-1.21.673-.21 0-.405-.045-.584-.134-.12-.06-1.377-1.062-3.77-3.007.478 3.052.718 4.638.718 4.757 0 .359-.135.666-.404.92-.27.255-.583.382-.942.382-.36 0-.674-.127-.943-.382zM310.828 337.525a1.218 1.218 0 0 1-.403-.92c0-.12.238-1.705.718-4.757-2.394 1.945-3.651 2.947-3.77 3.007-.18.09-.375.134-.584.134-.509 0-.913-.224-1.211-.673a1.415 1.415 0 0 1-.18-.718c0-.508.209-.868.628-1.077l4.488-1.75-4.488-1.75c-.42-.24-.628-.614-.628-1.122 0-.27.06-.509.18-.719.298-.449.687-.673 1.166-.673.21 0 .419.06.629.18.119.06 1.376 1.062 3.77 3.007-.48-3.052-.718-4.638-.718-4.757 0-.36.134-.666.403-.92a1.33 1.33 0 0 1 .943-.382c.359 0 .673.128.942.382.27.254.404.56.404.92 0 .12-.24 1.705-.718 4.757 2.394-1.945 3.65-2.947 3.77-3.008.15-.119.36-.179.628-.179.478 0 .868.224 1.167.673.12.24.18.465.18.674 0 .508-.21.897-.629 1.166l-4.487 1.75 4.487 1.75c.42.24.629.614.629 1.123 0 .21-.06.434-.18.673-.3.449-.703.673-1.212.673-.21 0-.404-.045-.583-.134-.12-.06-1.376-1.062-3.77-3.007.478 3.052.718 4.638.718 4.757 0 .359-.134.666-.404.92-.269.255-.583.382-.942.382-.36 0-.673-.127-.943-.382zM330.388 337.525a1.218 1.218 0 0 1-.404-.92c0-.12.239-1.705.718-4.757-2.394 1.945-3.65 2.947-3.77 3.007-.18.09-.375.134-.584.134-.508 0-.913-.224-1.211-.673a1.415 1.415 0 0 1-.18-.718c0-.508.21-.868.629-1.077l4.487-1.75-4.487-1.75c-.42-.24-.629-.614-.629-1.122 0-.27.06-.509.18-.719.298-.449.687-.673 1.166-.673.21 0 .419.06.629.18.12.06 1.376 1.062 3.77 3.007-.48-3.052-.718-4.638-.718-4.757 0-.36.134-.666.404-.92a1.33 1.33 0 0 1 .942-.382c.36 0 .673.128.942.382.27.254.404.56.404.92 0 .12-.24 1.705-.718 4.757 2.394-1.945 3.65-2.947 3.77-3.008.15-.119.36-.179.628-.179.479 0 .868.224 1.167.673.12.24.18.465.18.674 0 .508-.21.897-.629 1.166l-4.487 1.75 4.487 1.75c.42.24.629.614.629 1.123 0 .21-.06.434-.18.673-.3.449-.703.673-1.211.673-.21 0-.404-.045-.584-.134-.12-.06-1.376-1.062-3.77-3.007.478 3.052.718 4.638.718 4.757 0 .359-.134.666-.404.92-.269.255-.583.382-.942.382-.36 0-.673-.127-.942-.382zM349.947 337.525a1.218 1.218 0 0 1-.404-.92c0-.12.239-1.705.718-4.757-2.394 1.945-3.65 2.947-3.77 3.007-.18.09-.374.134-.583.134-.51 0-.914-.224-1.212-.673a1.415 1.415 0 0 1-.18-.718c0-.508.21-.868.629-1.077l4.487-1.75-4.487-1.75c-.42-.24-.629-.614-.629-1.122 0-.27.06-.509.18-.719.298-.449.688-.673 1.167-.673.209 0 .418.06.628.18.12.06 1.376 1.062 3.77 3.007-.48-3.052-.718-4.638-.718-4.757 0-.36.134-.666.404-.92a1.33 1.33 0 0 1 .942-.382c.36 0 .673.128.942.382.27.254.404.56.404.92 0 .12-.24 1.705-.718 4.757 2.394-1.945 3.65-2.947 3.77-3.008.15-.119.36-.179.629-.179.478 0 .867.224 1.166.673.12.24.18.465.18.674 0 .508-.21.897-.628 1.166l-4.488 1.75 4.488 1.75c.419.24.628.614.628 1.123 0 .21-.06.434-.18.673-.299.449-.703.673-1.211.673-.21 0-.404-.045-.584-.134-.12-.06-1.376-1.062-3.77-3.007.479 3.052.718 4.638.718 4.757 0 .359-.134.666-.404.92-.269.255-.583.382-.942.382s-.673-.127-.942-.382zM369.506 337.525a1.219 1.219 0 0 1-.404-.92c0-.12.239-1.705.718-4.757-2.394 1.945-3.65 2.947-3.77 3.007-.18.09-.374.134-.583.134-.509 0-.913-.224-1.212-.673a1.415 1.415 0 0 1-.18-.718c0-.508.21-.868.629-1.077l4.488-1.75-4.488-1.75c-.42-.24-.628-.614-.628-1.122 0-.27.06-.509.18-.719.298-.449.687-.673 1.166-.673.209 0 .418.06.628.18.12.06 1.376 1.062 3.77 3.007-.479-3.052-.718-4.638-.718-4.757 0-.36.135-.666.404-.92a1.33 1.33 0 0 1 .943-.382c.359 0 .673.128.942.382.27.254.404.56.404.92 0 .12-.24 1.705-.718 4.757 2.393-1.945 3.65-2.947 3.77-3.008.149-.119.359-.179.628-.179.478 0 .867.224 1.167.673.119.24.18.465.18.674 0 .508-.21.897-.63 1.166l-4.487 1.75 4.488 1.75c.419.24.628.614.628 1.123 0 .21-.06.434-.18.673-.299.449-.703.673-1.211.673-.21 0-.404-.045-.584-.134-.12-.06-1.376-1.062-3.77-3.007.479 3.052.719 4.638.719 4.757 0 .359-.135.666-.404.92-.27.255-.583.382-.942.382-.36 0-.674-.127-.943-.382z" class="color000000 svgShape" opacity=".1"/><path fill="#00a9fe" d="M369.68 389.261H293.9a4.796 4.796 0 0 1-4.797-4.796v-24.504a4.796 4.796 0 0 1 4.796-4.796h75.78a4.796 4.796 0 0 1 4.796 4.796v24.504a4.796 4.796 0 0 1-4.796 4.796z" class="color00f2fe svgShape"/><path d="M309.223 378.521h-5.717v-9.986a.914.914 0 0 0-.278-.669.915.915 0 0 0-.67-.278.885.885 0 0 0-.66.28.931.931 0 0 0-.268.667v10.611c0 .343.124.64.367.884.243.243.54.367.884.367h6.342c.259 0 .484-.09.667-.267.185-.178.28-.401.28-.662 0-.26-.094-.484-.278-.669s-.41-.278-.67-.278zM320.906 368.338c-.95-.557-2.073-.84-3.34-.84s-2.395.283-3.35.84a5.773 5.773 0 0 0-2.228 2.318c-.519.977-.794 2.114-.818 3.383.024 1.266.3 2.403.818 3.38a5.768 5.768 0 0 0 2.227 2.318c.956.556 2.083.839 3.35.839s2.392-.283 3.341-.84c.951-.556 1.7-1.338 2.227-2.326.525-.983.803-2.116.828-3.375-.025-1.254-.303-2.388-.828-3.37a5.846 5.846 0 0 0-2.227-2.327zm-3.34 10.469c-.937 0-1.754-.21-2.427-.624a4.135 4.135 0 0 1-1.553-1.7c-.359-.718-.54-1.54-.54-2.446 0-.905.181-1.727.54-2.445a4.134 4.134 0 0 1 1.553-1.7c.673-.415 1.49-.625 2.426-.625.925 0 1.738.21 2.419.625a4.127 4.127 0 0 1 1.56 1.7c.36.718.541 1.541.541 2.445 0 .904-.182 1.727-.54 2.446a4.123 4.123 0 0 1-1.561 1.7c-.68.414-1.494.624-2.419.624zM335.984 373.305h-3.52a.828.828 0 0 0-.606.25.827.827 0 0 0-.25.607c0 .236.084.44.25.607.166.166.37.25.607.25h2.822v3.034a6.35 6.35 0 0 1-3 .736c-.975 0-1.828-.208-2.538-.618a4.163 4.163 0 0 1-1.631-1.682c-.376-.711-.566-1.53-.566-2.434 0-.986.202-1.847.6-2.556a4.007 4.007 0 0 1 1.655-1.62c.705-.37 1.51-.558 2.39-.558.639 0 1.24.082 1.786.244a7.443 7.443 0 0 1 1.659.742c.134.069.28.103.431.103a.843.843 0 0 0 .875-.857.878.878 0 0 0-.125-.457.743.743 0 0 0-.29-.292 9.119 9.119 0 0 0-2.038-.96c-.706-.229-1.54-.345-2.477-.345-1.172 0-2.253.276-3.214.82a5.97 5.97 0 0 0-2.29 2.316c-.556.991-.838 2.142-.838 3.42 0 1.254.27 2.39.801 3.374a5.781 5.781 0 0 0 2.264 2.317c.967.55 2.087.83 3.33.83 1.407 0 2.802-.341 4.145-1.013.223-.105.406-.268.543-.483.138-.216.208-.464.208-.738v-4.055a.95.95 0 0 0-.287-.695.95.95 0 0 0-.696-.287zM345.523 367.588a.885.885 0 0 0-.661.28.931.931 0 0 0-.268.667v11.022c0 .26.09.482.27.66a.9.9 0 0 0 .66.27.93.93 0 0 0 .666-.268c.186-.178.28-.4.28-.662v-11.022a.914.914 0 0 0-.278-.669.915.915 0 0 0-.669-.278zM360.537 367.866a.915.915 0 0 0-.669-.278.883.883 0 0 0-.66.28.931.931 0 0 0-.268.667v9.247l-6.654-9.61c-.298-.387-.662-.584-1.082-.584h-.232c-.356 0-.662.13-.912.386a1.275 1.275 0 0 0-.375.918v10.665c0 .26.09.482.27.66a.9.9 0 0 0 .66.27.93.93 0 0 0 .666-.268c.186-.178.28-.4.28-.662v-9.264l6.689 9.66c.117.157.269.287.452.385.185.098.385.148.595.148h.214c.354 0 .663-.126.919-.375.255-.25.385-.556.385-.911v-10.665a.915.915 0 0 0-.278-.669z" class="color000000 svgShape" opacity=".1"/><path fill="#ebf8ff" d="M322.657 291.502h-52.358a2.785 2.785 0 0 1 0-5.571h52.358a2.785 2.785 0 0 1 2.785 2.785v.001a2.785 2.785 0 0 1-2.785 2.785z" class="coloredebff svgShape"/><path d="M366.372 290.277a2.792 2.792 0 0 1-2.78 2.78h-30.698a2.78 2.78 0 0 1-2.78-2.78 2.78 2.78 0 0 1 2.78-2.79h30.697a2.79 2.79 0 0 1 2.78 2.79z" class="color000000 svgShape" opacity=".1"/><path fill="#ebf8ff" d="M361.556 291.502h-28.212a2.785 2.785 0 0 1 0-5.571h28.212a2.785 2.785 0 0 1 2.785 2.785v.001a2.785 2.785 0 0 1-2.785 2.785zM290.498 336.22a1.218 1.218 0 0 1-.404-.92c0-.12.239-1.706.718-4.758-2.394 1.945-3.65 2.947-3.77 3.007-.18.09-.375.134-.584.134-.509 0-.913-.224-1.211-.673a1.415 1.415 0 0 1-.18-.718c0-.508.209-.868.628-1.077l4.488-1.75-4.488-1.75c-.419-.24-.628-.614-.628-1.122 0-.27.06-.509.18-.719.298-.449.687-.673 1.166-.673.21 0 .419.06.629.18.12.06 1.376 1.062 3.77 3.007-.48-3.052-.718-4.638-.718-4.757 0-.36.134-.666.404-.92a1.33 1.33 0 0 1 .942-.382c.36 0 .673.128.942.382.27.254.404.56.404.92 0 .12-.24 1.705-.718 4.757 2.394-1.945 3.65-2.947 3.77-3.008.15-.119.36-.179.628-.179.478 0 .868.224 1.167.673.12.24.18.465.18.674 0 .509-.21.897-.629 1.166l-4.487 1.75 4.487 1.75c.42.24.629.614.629 1.123 0 .21-.06.434-.18.673-.3.449-.703.673-1.212.673-.21 0-.403-.045-.583-.134-.12-.06-1.376-1.062-3.77-3.007.478 3.052.718 4.638.718 4.757 0 .36-.134.666-.404.92-.269.255-.583.382-.942.382-.36 0-.673-.127-.942-.382zM310.057 336.22a1.218 1.218 0 0 1-.404-.92c0-.12.239-1.706.718-4.758-2.394 1.945-3.65 2.947-3.77 3.007-.18.09-.374.134-.583.134-.51 0-.914-.224-1.212-.673a1.415 1.415 0 0 1-.18-.718c0-.508.21-.868.629-1.077l4.487-1.75-4.487-1.75c-.42-.24-.629-.614-.629-1.122 0-.27.06-.509.18-.719.298-.449.688-.673 1.167-.673.209 0 .418.06.628.18.12.06 1.376 1.062 3.77 3.007-.48-3.052-.718-4.638-.718-4.757 0-.36.134-.666.404-.92a1.33 1.33 0 0 1 .942-.382c.36 0 .673.128.942.382.27.254.404.56.404.92 0 .12-.24 1.705-.718 4.757 2.394-1.945 3.65-2.947 3.77-3.008.15-.119.36-.179.629-.179.478 0 .867.224 1.166.673.12.24.18.465.18.674 0 .509-.21.897-.629 1.166l-4.487 1.75 4.487 1.75c.42.24.629.614.629 1.123 0 .21-.06.434-.18.673-.3.449-.703.673-1.211.673-.21 0-.404-.045-.584-.134-.12-.06-1.376-1.062-3.77-3.007.478 3.052.718 4.638.718 4.757 0 .36-.134.666-.404.92-.269.255-.583.382-.942.382-.36 0-.673-.127-.942-.382zM329.616 336.22a1.218 1.218 0 0 1-.404-.92c0-.12.239-1.706.718-4.758-2.394 1.945-3.65 2.947-3.77 3.007-.18.09-.374.134-.583.134-.51 0-.913-.224-1.212-.673a1.415 1.415 0 0 1-.18-.718c0-.508.21-.868.629-1.077l4.487-1.75-4.487-1.75c-.42-.24-.629-.614-.629-1.122 0-.27.06-.509.18-.719.299-.449.688-.673 1.167-.673.209 0 .418.06.628.18.12.06 1.376 1.062 3.77 3.007-.48-3.052-.718-4.638-.718-4.757 0-.36.134-.666.404-.92a1.33 1.33 0 0 1 .943-.382c.358 0 .673.128.942.382.27.254.403.56.403.92 0 .12-.24 1.705-.717 4.757 2.393-1.945 3.65-2.947 3.77-3.008.149-.119.359-.179.628-.179.478 0 .867.224 1.166.673.12.24.18.465.18.674 0 .509-.21.897-.628 1.166l-4.488 1.75 4.488 1.75c.419.24.628.614.628 1.123 0 .21-.06.434-.18.673-.299.449-.703.673-1.211.673-.21 0-.404-.045-.584-.134-.12-.06-1.376-1.062-3.77-3.007.479 3.052.718 4.638.718 4.757 0 .36-.134.666-.403.92-.27.255-.584.382-.942.382-.36 0-.674-.127-.943-.382zM349.175 336.22a1.218 1.218 0 0 1-.404-.92c0-.12.24-1.706.718-4.758-2.394 1.945-3.65 2.947-3.77 3.007-.18.09-.374.134-.583.134-.509 0-.913-.224-1.212-.673a1.415 1.415 0 0 1-.18-.718c0-.508.21-.868.63-1.077l4.487-1.75-4.488-1.75c-.42-.24-.628-.614-.628-1.122 0-.27.06-.509.18-.719.298-.449.687-.673 1.166-.673.209 0 .419.06.629.18.119.06 1.375 1.062 3.77 3.007-.48-3.052-.719-4.638-.719-4.757 0-.36.135-.666.404-.92a1.33 1.33 0 0 1 .943-.382c.359 0 .673.128.942.382.27.254.404.56.404.92 0 .12-.24 1.705-.718 4.757 2.393-1.945 3.65-2.947 3.77-3.008.149-.119.359-.179.628-.179.478 0 .867.224 1.167.673.119.24.18.465.18.674 0 .509-.21.897-.63 1.166l-4.487 1.75 4.488 1.75c.419.24.628.614.628 1.123 0 .21-.06.434-.18.673-.299.449-.703.673-1.21.673-.21 0-.405-.045-.585-.134-.12-.06-1.376-1.062-3.77-3.007.479 3.052.719 4.638.719 4.757 0 .36-.135.666-.404.92-.27.255-.583.382-.942.382-.36 0-.674-.127-.943-.382zM368.734 336.22a1.218 1.218 0 0 1-.403-.92c0-.12.238-1.706.717-4.758-2.394 1.945-3.65 2.947-3.77 3.007-.179.09-.374.134-.583.134-.509 0-.913-.224-1.211-.673a1.416 1.416 0 0 1-.18-.718c0-.508.209-.868.628-1.077l4.488-1.75-4.488-1.75c-.42-.24-.628-.614-.628-1.122 0-.27.06-.509.18-.719.298-.449.687-.673 1.166-.673.21 0 .419.06.629.18.119.06 1.375 1.062 3.77 3.007-.48-3.052-.718-4.638-.718-4.757 0-.36.134-.666.403-.92a1.33 1.33 0 0 1 .943-.382c.359 0 .673.128.942.382.27.254.404.56.404.92 0 .12-.24 1.705-.718 4.757 2.393-1.945 3.65-2.947 3.77-3.008.15-.119.36-.179.628-.179.478 0 .868.224 1.167.673.119.24.18.465.18.674 0 .509-.21.897-.629 1.166l-4.487 1.75 4.487 1.75c.42.24.629.614.629 1.123 0 .21-.061.434-.18.673-.3.449-.703.673-1.212.673-.21 0-.404-.045-.583-.134-.12-.06-1.377-1.062-3.77-3.007.478 3.052.718 4.638.718 4.757 0 .36-.134.666-.404.92-.27.255-.583.382-.942.382-.36 0-.673-.127-.943-.382z" class="coloredebff svgShape"/><path fill="#fff" d="M308.183 377.309h-5.716v-9.987a.914.914 0 0 0-.278-.668.915.915 0 0 0-.67-.278.885.885 0 0 0-.66.279.93.93 0 0 0-.268.667v10.612c0 .342.123.64.367.883.243.244.54.367.883.367h6.342c.26 0 .484-.09.667-.267.186-.178.28-.4.28-.661 0-.26-.093-.485-.278-.67s-.409-.277-.669-.277zM319.867 367.125c-.95-.556-2.074-.839-3.34-.839s-2.395.283-3.351.84a5.773 5.773 0 0 0-2.227 2.317c-.52.977-.794 2.114-.819 3.384.025 1.265.3 2.402.819 3.379a5.768 5.768 0 0 0 2.227 2.318c.956.557 2.083.84 3.35.84s2.392-.283 3.34-.84c.952-.556 1.701-1.339 2.228-2.326.524-.983.803-2.117.828-3.376-.025-1.253-.304-2.387-.828-3.37a5.846 5.846 0 0 0-2.227-2.327zm-3.34 10.47c-.938 0-1.754-.21-2.428-.625a4.135 4.135 0 0 1-1.552-1.7c-.36-.718-.54-1.54-.54-2.446 0-.904.18-1.727.54-2.445a4.134 4.134 0 0 1 1.552-1.7c.674-.414 1.49-.624 2.427-.624.925 0 1.738.21 2.418.624a4.127 4.127 0 0 1 1.561 1.7c.36.719.54 1.542.54 2.445 0 .905-.18 1.728-.54 2.446a4.123 4.123 0 0 1-1.56 1.7c-.68.414-1.494.624-2.419.624zM334.945 372.092h-3.52a.828.828 0 0 0-.606.251.827.827 0 0 0-.251.606c0 .237.084.441.251.607.166.167.37.251.607.251h2.822v3.034a6.35 6.35 0 0 1-3.001.736c-.974 0-1.827-.208-2.537-.618a4.163 4.163 0 0 1-1.631-1.683c-.376-.71-.566-1.529-.566-2.433 0-.987.202-1.847.6-2.557a4.007 4.007 0 0 1 1.655-1.62c.705-.37 1.509-.558 2.39-.558.639 0 1.24.083 1.786.245a7.443 7.443 0 0 1 1.658.742c.135.068.28.103.432.103a.843.843 0 0 0 .875-.857.878.878 0 0 0-.125-.458.743.743 0 0 0-.29-.291 9.12 9.12 0 0 0-2.038-.96c-.707-.23-1.54-.346-2.477-.346-1.172 0-2.254.276-3.215.82a5.97 5.97 0 0 0-2.29 2.317c-.555.99-.837 2.141-.837 3.42 0 1.254.27 2.389.8 3.373a5.781 5.781 0 0 0 2.264 2.317c.967.551 2.088.83 3.331.83 1.406 0 2.802-.34 4.145-1.012.223-.106.406-.268.543-.484.137-.216.207-.464.207-.737v-4.056a.95.95 0 0 0-.286-.695.95.95 0 0 0-.696-.287zM344.484 366.376a.885.885 0 0 0-.661.279.931.931 0 0 0-.268.667v11.023c0 .26.09.482.27.66a.9.9 0 0 0 .659.269.93.93 0 0 0 .667-.267c.186-.178.28-.4.28-.662v-11.023a.914.914 0 0 0-.278-.668.915.915 0 0 0-.67-.278zM359.498 366.654a.915.915 0 0 0-.669-.278.883.883 0 0 0-.661.279.93.93 0 0 0-.268.667v9.247l-6.653-9.609c-.299-.388-.662-.584-1.082-.584h-.232c-.356 0-.663.13-.912.386a1.275 1.275 0 0 0-.375.918v10.665c0 .26.09.482.27.66a.9.9 0 0 0 .66.269.93.93 0 0 0 .666-.267c.186-.178.28-.4.28-.662v-9.265l6.689 9.661c.117.157.269.286.452.384.185.099.385.149.595.149h.214c.354 0 .662-.126.918-.375.256-.25.386-.557.386-.912v-10.665a.915.915 0 0 0-.278-.668z" class="colorffffff svgShape"/><path d="M425.627 349.043v85.115c0 1.46-.16 2.89-.46 4.26-3.07-2.66-5.871-5.59-8.162-8.611-8.351-11.012-18.043-63.611-13.292-70.262 2.48-3.48 11.822-7.481 21.914-10.502z" class="color000000 svgShape" opacity=".1"/><path fill="#2b7499" d="M487.212 433.185c-8.352 11.014-23.558 20.888-33.409 20.89-9.855 0-25.076-9.876-33.428-20.89-8.352-11.014-18.035-63.616-13.29-70.271 4.745-6.636 34.438-15.168 46.718-15.167 12.275 0 41.954 8.531 46.7 15.167 4.744 6.655-4.939 59.257-13.291 70.27z" class="color452b99 svgShape"/><path d="M454.954 449.105c-6.889 0-20.596-7.913-28.629-18.506-6.944-9.158-15.476-55.19-13-63.347 3.965-4.19 29.68-12.429 41.628-12.429 11.93 0 37.587 8.22 41.614 12.436 2.469 8.178-6.06 54.185-13.003 63.34-8.031 10.59-21.73 18.506-28.61 18.506z" class="color000000 svgShape" opacity=".1"/><path fill="#6cf" d="M453.803 448.052c-6.889 0-20.596-7.913-28.63-18.507-6.944-9.158-15.476-55.19-13-63.346 3.966-4.19 29.68-12.43 41.63-12.43 11.929.001 37.586 8.22 41.613 12.437 2.468 8.178-6.06 54.184-13.003 63.34-8.032 10.59-21.73 18.505-28.61 18.506z" class="color8f6dff svgShape"/><circle cx="455.784" cy="402.806" r="15.935" class="color000000 svgShape" opacity=".1"/><circle cx="453.793" cy="400.911" r="15.935" fill="#3793c1" class="color6737c1 svgShape"/><path d="M451.214 410.24h-.01a1.5 1.5 0 0 1-1.064-.452c-.001-.001-2.752-2.82-4.391-4.45a1.501 1.501 0 0 1 2.116-2.127c.997.992 2.403 2.42 3.36 3.396l10.796-10.796a1.5 1.5 0 1 1 2.122 2.122L452.274 409.8a1.5 1.5 0 0 1-1.06.44z" class="color000000 svgShape" opacity=".1"/><path fill="#fff" d="M450.42 409.1h-.009a1.5 1.5 0 0 1-1.064-.453c-.001-.002-2.752-2.82-4.391-4.45a1.501 1.501 0 0 1 2.117-2.127c.996.991 2.402 2.42 3.359 3.396l10.796-10.796a1.5 1.5 0 1 1 2.122 2.121L451.48 408.66c-.28.28-.663.44-1.06.44z" class="colorffffff svgShape"/><path fill="#22b3fc" d="m103.101 176.32-30.862-40.846 53.714 8.484z" class="colorfcc922 svgShape"/><path fill="#03abff" d="m72.239 135.474 39.744 28.267 6 6.102-.081-14.483z" class="colorffa903 svgShape"/><path fill="#03abff" d="m117.984 169.843-8.58-2.448 2.58-3.654z" class="colorffa903 svgShape"/></svg>