<svg xmlns="http://www.w3.org/2000/svg" enable-background="new 0 0 195.572 150" viewBox="0 0 195.572 150"><switch><g class="color000000 svgShape"><rect width="195.572" height="150" fill="none"/><path fill="#d8eaf3" d="M18.95,68.132c-4.057,8.411-9.582,16.083-13.197,24.693c-3.615,8.61-5.136,18.772-0.972,27.13
								c4.609,9.251,15.282,14.205,25.595,14.893c10.312,0.688,20.493-2.154,30.476-4.827s20.293-5.225,30.55-3.948
								c9.501,1.182,18.288,5.573,27.595,7.823c9.306,2.25,20.291,1.867,26.978-4.986c5.287-5.418,6.605-13.719,5.516-21.211
								c-1.09-7.492-4.249-14.494-6.862-21.599c-2.614-7.105-4.729-14.689-3.607-22.175c2.141-14.282,15.683-26.225,13.573-40.512
								c-1.446-9.791-10.509-17.259-20.23-19.118s-19.808,0.987-28.639,5.456s-16.753,10.518-25.2,15.675
								c-8.448,5.158-17.739,9.508-27.625,10.003c-5.249,0.263-10.51-0.572-15.756-0.257c-6.813,0.409-13.271,2.611-13.543,9.499
								C23.261,53.293,22.819,60.112,18.95,68.132z" class="colord8e5f3 svgShape"/><rect width="10.489" height="10.489" x="13.342" y="103.682" fill="#b9def1" class="colorb9d6f1 svgShape"/><path fill="#6cf" d="M96.267,61.475c-0.094,0-0.174-0.072-0.181-0.168c-0.007-0.1,0.067-0.187,0.167-0.194
								c0.723-0.055,1.447-0.109,2.171-0.165c0.098-0.007,0.187,0.067,0.195,0.167s-0.067,0.187-0.167,0.195
								c-0.724,0.056-1.448,0.11-2.171,0.165C96.276,61.475,96.272,61.475,96.267,61.475z M100.609,61.137
								c-0.093,0-0.173-0.072-0.181-0.166c-0.008-0.1,0.066-0.188,0.166-0.196c0.723-0.06,1.445-0.122,2.168-0.188
								c0.101-0.009,0.188,0.064,0.197,0.164c0.009,0.1-0.064,0.188-0.164,0.197c-0.723,0.066-1.447,0.129-2.171,0.188
								C100.619,61.137,100.614,61.137,100.609,61.137z M104.945,60.737c-0.092,0-0.171-0.069-0.18-0.163
								c-0.01-0.1,0.062-0.189,0.162-0.199c0.742-0.077,1.469-0.159,2.161-0.242c0.099-0.011,0.19,0.059,0.202,0.158
								c0.012,0.099-0.059,0.19-0.159,0.202c-0.694,0.084-1.423,0.165-2.167,0.243C104.957,60.737,104.951,60.737,104.945,60.737z
								 M109.268,60.214c-0.089,0-0.167-0.065-0.18-0.156c-0.014-0.099,0.055-0.191,0.154-0.205
								c0.732-0.103,1.455-0.213,2.148-0.327c0.097-0.016,0.192,0.051,0.209,0.15c0.016,0.099-0.051,0.192-0.15,0.208
								c-0.696,0.114-1.422,0.225-2.157,0.328C109.284,60.213,109.276,60.214,109.268,60.214z M113.564,59.505
								c-0.085,0-0.161-0.06-0.178-0.147c-0.019-0.098,0.046-0.194,0.144-0.212c0.721-0.138,1.436-0.287,2.126-0.441
								c0.097-0.021,0.195,0.04,0.217,0.138c0.022,0.098-0.04,0.195-0.137,0.217c-0.694,0.155-1.413,0.304-2.137,0.444
								C113.587,59.504,113.575,59.505,113.564,59.505z M117.812,58.551c-0.081,0-0.154-0.054-0.175-0.136
								c-0.025-0.097,0.033-0.196,0.13-0.221c0.705-0.184,1.408-0.381,2.09-0.586c0.096-0.029,0.197,0.025,0.226,0.121
								c0.029,0.096-0.025,0.197-0.121,0.226c-0.686,0.207-1.394,0.405-2.103,0.59C117.842,58.549,117.827,58.551,117.812,58.551z
								 M121.979,57.292c-0.075,0-0.145-0.047-0.172-0.122c-0.033-0.095,0.017-0.198,0.112-0.231
								c0.689-0.239,1.374-0.493,2.034-0.755c0.093-0.037,0.199,0.009,0.236,0.102c0.037,0.093-0.009,0.199-0.102,0.236
								c-0.665,0.264-1.354,0.52-2.049,0.761C122.019,57.289,121.999,57.292,121.979,57.292z M126.025,55.683
								c-0.069,0-0.135-0.04-0.165-0.106c-0.041-0.091-0.001-0.199,0.09-0.24c0.663-0.3,1.319-0.618,1.951-0.945
								c0.089-0.046,0.199-0.011,0.244,0.078c0.046,0.089,0.011,0.199-0.078,0.244c-0.637,0.329-1.299,0.65-1.968,0.953
								C126.075,55.678,126.05,55.683,126.025,55.683z M129.89,53.683c-0.062,0-0.123-0.032-0.157-0.089
								c-0.051-0.086-0.022-0.198,0.064-0.248c0.626-0.369,1.243-0.757,1.834-1.153c0.083-0.056,0.196-0.034,0.252,0.049
								c0.056,0.083,0.034,0.196-0.049,0.252c-0.596,0.401-1.219,0.792-1.852,1.165C129.953,53.675,129.922,53.683,129.89,53.683z
								 M133.501,51.254c-0.055,0-0.108-0.024-0.144-0.071c-0.061-0.08-0.046-0.193,0.034-0.254c0.496-0.38,0.984-0.777,1.451-1.18
								c0.074-0.064,0.148-0.128,0.222-0.193c0.075-0.066,0.19-0.059,0.256,0.016c0.066,0.075,0.059,0.19-0.017,0.256
								c-0.074,0.065-0.149,0.131-0.224,0.195c-0.473,0.408-0.966,0.809-1.467,1.194C133.579,51.242,133.54,51.254,133.501,51.254z
								 M136.764,48.376c-0.046,0-0.092-0.017-0.127-0.052c-0.071-0.07-0.072-0.185-0.002-0.257
								c0.504-0.514,0.995-1.052,1.458-1.599c0.065-0.076,0.179-0.086,0.256-0.021c0.076,0.065,0.086,0.179,0.021,0.256
								c-0.469,0.554-0.965,1.098-1.476,1.618C136.858,48.358,136.811,48.376,136.764,48.376z M139.574,45.055
								c-0.037,0-0.074-0.011-0.106-0.034c-0.081-0.059-0.099-0.172-0.04-0.253c0.424-0.586,0.828-1.191,1.2-1.799
								c0.052-0.085,0.164-0.112,0.249-0.06c0.085,0.052,0.112,0.164,0.06,0.249c-0.377,0.616-0.786,1.23-1.216,1.823
								C139.685,45.029,139.63,45.055,139.574,45.055z M80.119,44.762c-0.019,0-0.038-0.003-0.057-0.009
								c-0.095-0.031-0.147-0.134-0.116-0.229c0.026-0.079,0.052-0.157,0.078-0.235c0.032-0.095,0.135-0.146,0.23-0.114
								c0.095,0.032,0.146,0.135,0.114,0.23c-0.026,0.077-0.052,0.155-0.077,0.233C80.266,44.713,80.195,44.762,80.119,44.762z
								 M80.963,42.491c-0.023,0-0.047-0.005-0.07-0.014c-0.092-0.039-0.136-0.145-0.098-0.237c0.281-0.674,0.589-1.343,0.915-1.989
								c0.045-0.089,0.154-0.125,0.244-0.08c0.09,0.045,0.125,0.154,0.08,0.244c-0.322,0.638-0.626,1.299-0.904,1.965
								C81.102,42.449,81.034,42.491,80.963,42.491z M141.841,41.342c-0.027,0-0.055-0.006-0.081-0.019
								c-0.09-0.045-0.125-0.154-0.08-0.244c0.326-0.646,0.625-1.309,0.89-1.97c0.037-0.093,0.142-0.138,0.236-0.101
								c0.093,0.037,0.138,0.143,0.101,0.236c-0.268,0.67-0.572,1.342-0.903,1.998C141.971,41.305,141.907,41.342,141.841,41.342z
								 M112.882,39.026c-0.005,0-0.01,0-0.015-0.001c-0.724-0.059-1.449-0.252-2.154-0.573c-0.091-0.042-0.131-0.149-0.09-0.24
								c0.042-0.091,0.149-0.132,0.24-0.09c0.666,0.304,1.35,0.486,2.033,0.542c0.1,0.008,0.174,0.096,0.166,0.196
								C113.055,38.954,112.975,39.026,112.882,39.026z M115.029,38.772c-0.076,0-0.146-0.048-0.172-0.124
								c-0.032-0.095,0.019-0.198,0.114-0.23c0.653-0.219,1.261-0.572,1.809-1.05c0.076-0.066,0.19-0.058,0.256,0.017
								c0.066,0.076,0.058,0.19-0.017,0.256c-0.584,0.51-1.233,0.887-1.932,1.121C115.067,38.769,115.048,38.772,115.029,38.772z
								 M82.923,38.608c-0.032,0-0.064-0.008-0.093-0.026c-0.086-0.052-0.114-0.163-0.062-0.249
								c0.374-0.624,0.776-1.241,1.195-1.835c0.058-0.082,0.171-0.102,0.253-0.044c0.082,0.058,0.101,0.171,0.044,0.253
								c-0.414,0.586-0.811,1.196-1.181,1.812C83.045,38.576,82.984,38.608,82.923,38.608z M143.455,37.303
								c-0.017,0-0.035-0.003-0.052-0.008c-0.096-0.029-0.151-0.13-0.122-0.226c0.207-0.693,0.381-1.398,0.519-2.096
								c0.019-0.098,0.114-0.163,0.213-0.143c0.098,0.019,0.162,0.115,0.143,0.213c-0.14,0.709-0.317,1.425-0.527,2.129
								C143.605,37.252,143.533,37.303,143.455,37.303z M108.97,37.284c-0.042,0-0.085-0.015-0.12-0.045
								c-0.563-0.494-1.051-1.059-1.45-1.682c-0.054-0.084-0.03-0.197,0.055-0.251c0.084-0.054,0.197-0.03,0.251,0.055
								c0.381,0.594,0.847,1.134,1.384,1.605c0.075,0.066,0.083,0.181,0.017,0.256C109.071,37.263,109.02,37.284,108.97,37.284z
								 M118.268,36.006c-0.031,0-0.062-0.008-0.091-0.024c-0.087-0.05-0.117-0.161-0.066-0.248c0.353-0.61,0.615-1.272,0.779-1.968
								c0.023-0.098,0.121-0.158,0.218-0.135c0.098,0.023,0.158,0.121,0.135,0.218c-0.172,0.73-0.447,1.426-0.818,2.067
								C118.391,35.973,118.33,36.006,118.268,36.006z M85.43,35.055c-0.041,0-0.081-0.014-0.115-0.041
								c-0.077-0.064-0.089-0.178-0.025-0.255c0.46-0.559,0.949-1.11,1.453-1.638c0.069-0.073,0.184-0.075,0.257-0.006
								c0.073,0.069,0.075,0.184,0.006,0.257c-0.498,0.521-0.98,1.065-1.435,1.618C85.535,35.032,85.483,35.055,85.43,35.055z
								 M106.65,33.666c-0.077,0-0.149-0.05-0.173-0.128c-0.211-0.686-0.348-1.417-0.406-2.175c-0.008-0.1,0.067-0.187,0.167-0.195
								c0.099-0.008,0.187,0.067,0.195,0.167c0.056,0.731,0.188,1.436,0.391,2.096c0.03,0.096-0.024,0.197-0.12,0.227
								C106.686,33.664,106.668,33.666,106.65,33.666z M144.292,33.038c-0.006,0-0.011,0-0.017-0.001
								c-0.1-0.009-0.173-0.098-0.164-0.198c0.02-0.209,0.036-0.418,0.049-0.627c0.026-0.4,0.039-0.808,0.039-1.214
								c0-0.105-0.001-0.209-0.003-0.314c-0.002-0.1,0.078-0.183,0.178-0.184c0.099,0.003,0.183,0.078,0.184,0.178
								c0.002,0.107,0.003,0.213,0.003,0.319c0,0.413-0.013,0.829-0.039,1.237c-0.014,0.213-0.03,0.426-0.05,0.638
								C144.463,32.967,144.384,33.038,144.292,33.038z M88.433,31.909c-0.049,0-0.099-0.02-0.135-0.06
								c-0.067-0.074-0.062-0.189,0.013-0.256c0.536-0.486,1.099-0.961,1.674-1.412c0.079-0.062,0.193-0.048,0.255,0.031
								s0.048,0.193-0.031,0.255c-0.568,0.446-1.124,0.915-1.654,1.395C88.52,31.893,88.477,31.909,88.433,31.909z M119.245,31.827
								c-0.094,0-0.174-0.073-0.181-0.168c-0.026-0.363-0.083-0.722-0.169-1.066c-0.083-0.334-0.191-0.667-0.321-0.989
								c-0.037-0.093,0.007-0.199,0.1-0.236c0.093-0.038,0.199,0.007,0.236,0.1c0.136,0.338,0.25,0.687,0.337,1.037
								c0.091,0.364,0.151,0.743,0.179,1.127c0.007,0.1-0.068,0.187-0.168,0.194C119.254,31.827,119.249,31.827,119.245,31.827z
								 M106.29,29.357c-0.007,0-0.013,0-0.019-0.001c-0.1-0.011-0.172-0.1-0.161-0.2c0.075-0.709,0.211-1.438,0.402-2.166
								c0.025-0.097,0.125-0.155,0.222-0.129c0.097,0.025,0.155,0.125,0.129,0.222c-0.187,0.71-0.319,1.421-0.392,2.112
								C106.46,29.287,106.381,29.357,106.29,29.357z M91.855,29.22c-0.058,0-0.115-0.028-0.15-0.079
								c-0.056-0.083-0.035-0.196,0.048-0.252c0.597-0.406,1.22-0.8,1.851-1.17c0.087-0.051,0.197-0.022,0.248,0.065
								c0.051,0.086,0.022,0.198-0.065,0.248c-0.624,0.366-1.24,0.756-1.83,1.157C91.925,29.21,91.89,29.22,91.855,29.22z
								 M144.222,28.693c-0.09,0-0.168-0.067-0.18-0.159c-0.09-0.71-0.22-1.424-0.386-2.122c-0.023-0.098,0.037-0.195,0.134-0.219
								c0.098-0.023,0.195,0.037,0.218,0.134c0.169,0.711,0.302,1.438,0.393,2.16c0.013,0.099-0.058,0.19-0.157,0.203
								C144.238,28.692,144.23,28.693,144.222,28.693z M117.671,27.83c-0.055,0-0.11-0.025-0.145-0.073
								c-0.417-0.555-0.91-1.075-1.467-1.546c-0.077-0.065-0.086-0.179-0.021-0.256c0.065-0.076,0.179-0.086,0.256-0.021
								c0.578,0.488,1.09,1.029,1.523,1.606c0.06,0.08,0.044,0.194-0.036,0.254C117.747,27.818,117.708,27.83,117.671,27.83z
								 M95.607,27.014c-0.066,0-0.13-0.036-0.162-0.1c-0.045-0.089-0.009-0.198,0.08-0.244c0.644-0.325,1.311-0.637,1.983-0.926
								c0.092-0.04,0.199,0.003,0.238,0.095c0.04,0.092-0.003,0.199-0.095,0.239c-0.665,0.287-1.326,0.595-1.963,0.917
								C95.663,27.008,95.635,27.014,95.607,27.014z M99.604,25.291c-0.074,0-0.144-0.046-0.171-0.12
								c-0.034-0.094,0.015-0.198,0.109-0.233c0.583-0.212,1.182-0.413,1.782-0.599c0.098-0.03,0.196-0.06,0.294-0.09
								c0.097-0.028,0.197,0.026,0.226,0.122c0.029,0.096-0.026,0.197-0.122,0.226c-0.097,0.029-0.194,0.059-0.291,0.089
								c-0.594,0.184-1.188,0.384-1.765,0.594C99.645,25.287,99.624,25.291,99.604,25.291z M107.381,25.156
								c-0.023,0-0.047-0.004-0.069-0.014c-0.093-0.038-0.137-0.144-0.099-0.237c0.208-0.505,0.444-1.007,0.703-1.498
								c-0.003-0.014-0.005-0.028-0.005-0.043c0-0.079,0.05-0.147,0.121-0.172c0.048-0.088,0.097-0.176,0.146-0.263
								c0.05-0.087,0.16-0.118,0.247-0.068c0.087,0.05,0.118,0.16,0.068,0.247c-0.014,0.025-0.029,0.05-0.043,0.075
								c0.628,0.011,1.245,0.059,1.837,0.142c0.099,0.014,0.168,0.106,0.155,0.205c-0.014,0.099-0.105,0.169-0.205,0.155
								c-0.638-0.089-1.305-0.136-1.984-0.141c-0.26,0.491-0.497,0.993-0.705,1.499C107.52,25.114,107.453,25.156,107.381,25.156z
								 M114.382,25.025c-0.029,0-0.06-0.007-0.087-0.022c-0.625-0.343-1.286-0.628-1.965-0.847
								c-0.095-0.031-0.148-0.133-0.117-0.228c0.031-0.095,0.133-0.148,0.228-0.117c0.701,0.226,1.383,0.52,2.029,0.874
								c0.088,0.048,0.12,0.159,0.072,0.246C114.508,24.992,114.446,25.025,114.382,25.025z M143.215,24.465
								c-0.075,0-0.145-0.047-0.171-0.121c-0.241-0.678-0.521-1.347-0.833-1.989c-0.044-0.09-0.006-0.199,0.084-0.243
								c0.09-0.043,0.199-0.006,0.242,0.084c0.317,0.654,0.603,1.336,0.848,2.026c0.034,0.094-0.016,0.198-0.11,0.232
								C143.256,24.461,143.236,24.465,143.215,24.465z M103.776,24.055c-0.083,0-0.158-0.058-0.177-0.142
								c-0.022-0.098,0.04-0.195,0.138-0.216c0.738-0.162,1.466-0.288,2.162-0.373c0.099-0.011,0.19,0.059,0.202,0.158
								c0.012,0.099-0.059,0.19-0.158,0.202c-0.685,0.084-1.401,0.207-2.128,0.367C103.802,24.054,103.789,24.055,103.776,24.055z
								 M109.524,21.378c-0.037,0-0.075-0.012-0.108-0.036c-0.081-0.06-0.097-0.173-0.038-0.254
								c0.432-0.583,0.906-1.151,1.408-1.687c0.069-0.073,0.183-0.077,0.256-0.008c0.073,0.069,0.077,0.183,0.008,0.257
								c-0.493,0.526-0.957,1.083-1.381,1.655C109.634,21.353,109.579,21.378,109.524,21.378z M141.316,20.556
								c-0.06,0-0.119-0.03-0.153-0.084c-0.388-0.61-0.812-1.197-1.262-1.746c-0.064-0.078-0.052-0.192,0.025-0.256
								c0.078-0.063,0.192-0.052,0.255,0.025c0.459,0.56,0.892,1.159,1.288,1.781c0.054,0.085,0.029,0.197-0.056,0.25
								C141.383,20.547,141.349,20.556,141.316,20.556z M112.493,18.205c-0.051,0-0.102-0.022-0.138-0.064
								c-0.065-0.076-0.056-0.191,0.02-0.256c0.554-0.473,1.141-0.921,1.746-1.332c0.083-0.056,0.196-0.035,0.252,0.048
								c0.056,0.083,0.035,0.196-0.048,0.252c-0.594,0.404-1.171,0.844-1.714,1.308C112.576,18.191,112.534,18.205,112.493,18.205z
								 M138.557,17.201c-0.045,0-0.089-0.016-0.124-0.049c-0.525-0.495-1.083-0.955-1.66-1.367c-0.082-0.058-0.1-0.172-0.042-0.253
								s0.171-0.1,0.253-0.042c0.59,0.422,1.161,0.892,1.698,1.398c0.073,0.069,0.076,0.184,0.008,0.256
								C138.653,17.182,138.605,17.201,138.557,17.201z M116.086,15.76c-0.065,0-0.128-0.035-0.16-0.096
								c-0.047-0.089-0.014-0.198,0.075-0.245c0.647-0.344,1.317-0.655,1.993-0.924c0.093-0.037,0.198,0.009,0.236,0.102
								c0.037,0.093-0.008,0.198-0.102,0.236c-0.663,0.264-1.321,0.569-1.956,0.907C116.143,15.753,116.114,15.76,116.086,15.76z
								 M135.022,14.685c-0.027,0-0.055-0.006-0.082-0.019c-0.617-0.311-1.286-0.581-1.989-0.803
								c-0.096-0.03-0.149-0.132-0.119-0.228c0.03-0.095,0.131-0.149,0.228-0.119c0.722,0.227,1.409,0.505,2.044,0.825
								c0.09,0.045,0.125,0.154,0.08,0.244C135.152,14.648,135.088,14.685,135.022,14.685z M120.12,14.143
								c-0.079,0-0.151-0.052-0.174-0.131c-0.028-0.096,0.027-0.197,0.123-0.225c0.694-0.202,1.41-0.38,2.127-0.527
								c0.098-0.02,0.194,0.043,0.214,0.141c0.02,0.098-0.043,0.194-0.141,0.214c-0.708,0.145-1.414,0.32-2.099,0.52
								C120.154,14.141,120.137,14.143,120.12,14.143z M130.89,13.363c-0.01,0-0.021-0.001-0.031-0.003
								c-0.686-0.118-1.407-0.2-2.142-0.244c-0.1-0.006-0.176-0.092-0.17-0.192c0.006-0.1,0.092-0.179,0.192-0.17
								c0.749,0.044,1.483,0.128,2.182,0.249c0.099,0.017,0.165,0.111,0.148,0.21C131.054,13.301,130.977,13.363,130.89,13.363z
								 M124.382,13.267c-0.09,0-0.169-0.067-0.18-0.159c-0.012-0.099,0.059-0.19,0.158-0.202c0.733-0.09,1.468-0.149,2.185-0.175
								c0.102-0.003,0.184,0.075,0.188,0.175c0.004,0.1-0.075,0.184-0.175,0.188c-0.707,0.026-1.431,0.084-2.154,0.172
								C124.396,13.267,124.389,13.267,124.382,13.267z" class="color8abae7 svgShape"/><path fill="#6cf" d="M20.374,132.987c-0.022,0-0.044-0.004-0.066-0.013c-8.589-3.37-14.181-8.63-16.623-15.634
								c-2.515-7.216-1.166-14.998,0.408-20.255c1.704-5.689,4.033-9.732,4.056-9.772c0.05-0.087,0.162-0.116,0.248-0.066
								c0.087,0.05,0.116,0.161,0.066,0.248c-0.023,0.04-2.334,4.053-4.025,9.703c-1.557,5.204-2.893,12.902-0.41,20.024
								c2.405,6.899,7.927,12.085,16.412,15.414c0.093,0.037,0.139,0.142,0.103,0.235C20.515,132.943,20.446,132.987,20.374,132.987
								z" class="color8abae7 svgShape"/><path fill="#6cf" d="M17.468,128.372c-0.028,0-0.057-0.006-0.083-0.02c-8.415-4.354-11.076-11.227-11.828-16.227
								c-0.813-5.41,0.379-9.854,0.391-9.898c0.026-0.097,0.126-0.154,0.223-0.127c0.097,0.027,0.154,0.126,0.127,0.223
								c-0.012,0.044-1.185,4.426-0.38,9.762c0.741,4.912,3.36,11.665,11.633,15.946c0.089,0.046,0.124,0.156,0.078,0.245
								C17.597,128.336,17.533,128.372,17.468,128.372z" class="color8abae7 svgShape"/><path fill="#6cf" d="M154.152,21.473c-0.073,0-0.143-0.045-0.17-0.118c-1.745-4.653-4.448-8.448-8.032-11.279
								c-2.868-2.266-6.306-3.925-10.218-4.931c-6.668-1.714-12.468-0.924-12.526-0.916c-0.099,0.014-0.191-0.055-0.205-0.154
								c-0.014-0.099,0.055-0.191,0.154-0.205c0.058-0.008,5.93-0.809,12.667,0.924c3.961,1.018,7.444,2.7,10.352,4.997
								c3.637,2.873,6.378,6.721,8.147,11.437c0.035,0.094-0.012,0.198-0.106,0.234C154.195,21.469,154.173,21.473,154.152,21.473z" class="color8abae7 svgShape"/><path fill="#6cf" d="M152.531,13.446c-0.061,0-0.12-0.031-0.155-0.086c-5.775-9.358-17.83-11.441-17.951-11.46
								c-0.099-0.016-0.166-0.11-0.15-0.209c0.016-0.099,0.109-0.166,0.209-0.15c0.123,0.02,12.338,2.127,18.201,11.628
								c0.053,0.085,0.026,0.197-0.059,0.25C152.597,13.438,152.564,13.446,152.531,13.446z" class="color8abae7 svgShape"/><path d="M142.903,110.708c-0.994,0-1.802-0.809-1.802-1.802c0-0.994,0.809-1.802,1.802-1.802
								c0.994,0,1.802,0.808,1.802,1.802C144.706,109.899,143.897,110.708,142.903,110.708z M142.903,107.466
								c-0.794,0-1.439,0.646-1.439,1.439s0.646,1.439,1.439,1.439s1.439-0.646,1.439-1.439S143.697,107.466,142.903,107.466z" class="color000000 svgShape"/><path d="M127.926,126.99c-0.1,0-0.181-0.081-0.181-0.182v-4.278c0-0.1,0.081-0.181,0.181-0.181
									c0.1,0,0.181,0.081,0.181,0.181v4.278C128.107,126.908,128.026,126.99,127.926,126.99z" class="color000000 svgShape"/><path d="M130.065,124.851h-4.278c-0.1,0-0.181-0.081-0.181-0.182c0-0.1,0.081-0.181,0.181-0.181h4.278
									c0.1,0,0.181,0.081,0.181,0.181C130.247,124.769,130.165,124.851,130.065,124.851z" class="color000000 svgShape"/><g class="color000000 svgShape"><path d="M15.749,106.27h-4.813c-0.1,0-0.181-0.081-0.181-0.181v-4.813c0-0.1,0.081-0.181,0.181-0.181h4.813
								c0.1,0,0.181,0.081,0.181,0.181v4.813C15.93,106.188,15.849,106.27,15.749,106.27z M11.117,105.907h4.45v-4.45h-4.45V105.907
								z" class="color000000 svgShape"/></g><g class="color000000 svgShape"><path fill="#fff" d="M107.802,145.086H29.411c-2.004,0-3.802-1.625-4.015-3.629L12.036,15.892
								c-0.213-2.004,1.239-3.629,3.243-3.629h78.391c2.004,0,3.802,1.625,4.015,3.629l13.36,125.565
								C111.258,143.461,109.806,145.086,107.802,145.086z" class="colorffffff svgShape"/><path fill="#6cf" d="M99.219,30.32H13.571l-1.535-14.428c-0.213-2.004,1.239-3.629,3.243-3.629h78.391
								c2.004,0,3.802,1.625,4.015,3.629L99.219,30.32z" class="color8abae7 svgShape"/><path fill="#3eb8f5" d="M21.725,12.263c-0.158-1.483-1.488-2.686-2.972-2.686c-1.483,0-2.558,1.203-2.4,2.686
								c0.158,1.483,1.488,2.686,2.972,2.686C20.809,14.949,21.883,13.747,21.725,12.263z" class="colorf57a3e svgShape"/><path d="M19.325,15.131c-1.571,0-2.985-1.278-3.152-2.848c-0.082-0.772,0.143-1.498,0.635-2.045
								c0.488-0.543,1.179-0.841,1.946-0.841c1.571,0,2.985,1.278,3.152,2.848l0,0c0.082,0.772-0.143,1.498-0.635,2.045
								C20.783,14.832,20.092,15.131,19.325,15.131z M18.754,9.759c-0.662,0-1.258,0.256-1.676,0.721
								c-0.422,0.469-0.615,1.096-0.544,1.764c0.148,1.392,1.4,2.524,2.791,2.524c0.663,0,1.258-0.256,1.676-0.721
								c0.422-0.469,0.615-1.096,0.544-1.764c0,0,0,0,0,0C21.397,10.891,20.145,9.759,18.754,9.759z" class="color000000 svgShape"/><path fill="#d8eaf3" d="M29.976,12.263c-0.158-1.483-1.488-2.686-2.972-2.686c-1.483,0-2.558,1.203-2.4,2.686
								c0.158,1.483,1.488,2.686,2.972,2.686C29.059,14.949,30.134,13.747,29.976,12.263z" class="colord8e5f3 svgShape"/><path d="M27.576,15.131c-1.571,0-2.985-1.278-3.152-2.848c-0.082-0.772,0.143-1.498,0.635-2.045
								c0.488-0.543,1.179-0.841,1.946-0.841c1.571,0,2.985,1.278,3.152,2.848c0.082,0.772-0.143,1.498-0.635,2.045
								C29.034,14.832,28.343,15.131,27.576,15.131z M27.004,9.759c-0.663,0-1.258,0.256-1.676,0.721
								c-0.422,0.469-0.615,1.096-0.544,1.764c0.148,1.392,1.4,2.524,2.792,2.524c0.663,0,1.258-0.256,1.676-0.721
								c0.422-0.469,0.615-1.096,0.544-1.764C29.648,10.891,28.396,9.759,27.004,9.759z" class="color000000 svgShape"/><path fill="#469dc9" d="M38.227,12.263c-0.158-1.483-1.488-2.686-2.972-2.686c-1.483,0-2.558,1.203-2.4,2.686
								c0.158,1.483,1.488,2.686,2.972,2.686C37.31,14.949,38.385,13.747,38.227,12.263z" class="color4666c9 svgShape"/><path d="M35.827,15.131c-1.571,0-2.985-1.278-3.152-2.848c-0.082-0.772,0.143-1.498,0.635-2.045
								c0.488-0.543,1.179-0.841,1.946-0.841c1.571,0,2.985,1.278,3.152,2.848c0.082,0.772-0.143,1.498-0.635,2.045
								C37.285,14.832,36.593,15.131,35.827,15.131z M35.255,9.759c-0.662,0-1.257,0.256-1.676,0.721
								c-0.422,0.469-0.615,1.096-0.544,1.764c0.148,1.392,1.4,2.524,2.791,2.524c0.663,0,1.258-0.256,1.676-0.721
								c0.422-0.469,0.615-1.096,0.544-1.764C37.898,10.891,36.646,9.759,35.255,9.759z" class="color000000 svgShape"/><polygon fill="#fff" points="92.448 24.868 44.089 24.868 43.358 17.993 91.716 17.993" class="colorffffff svgShape"/><path d="M92.448,25.05c-0.092,0-0.17-0.069-0.18-0.162l-0.714-6.714H43.358c-0.1,0-0.181-0.081-0.181-0.181
								c0-0.1,0.081-0.182,0.181-0.182h48.359c0.093,0,0.171,0.07,0.18,0.162l0.732,6.876c0.011,0.1-0.062,0.189-0.161,0.2
								C92.461,25.05,92.454,25.05,92.448,25.05z" class="color000000 svgShape"/><path fill="#fff" d="M38.323,24.281h-3.549c-0.093,0-0.171-0.07-0.18-0.162l-0.259-2.43c-0.011-0.1,0.062-0.189,0.161-0.2
									c0.101-0.01,0.189,0.062,0.2,0.161l0.241,2.267h3.184l-0.237-2.229c-0.011-0.1,0.062-0.189,0.161-0.2
									c0.099-0.01,0.189,0.062,0.2,0.161l0.258,2.43c0.005,0.051-0.011,0.102-0.046,0.141
									C38.423,24.259,38.374,24.281,38.323,24.281z" class="colorffffff svgShape"/><path fill="#fff" d="M36.439,23.256c-0.092,0-0.17-0.069-0.18-0.162l-0.139-1.305c-0.011-0.1,0.062-0.189,0.161-0.2
									c0.1-0.009,0.189,0.062,0.2,0.161l0.139,1.305c0.011,0.1-0.062,0.189-0.161,0.2C36.452,23.256,36.445,23.256,36.439,23.256z
									" class="colorffffff svgShape"/><path fill="#fff" d="M38.845,21.696c-0.037,0-0.074-0.011-0.107-0.035l-2.762-2.008l-2.129,1.954
									c-0.074,0.068-0.189,0.063-0.256-0.011c-0.068-0.074-0.063-0.189,0.011-0.256l2.238-2.054
									c0.064-0.058,0.16-0.064,0.229-0.013l2.882,2.095c0.081,0.059,0.099,0.172,0.04,0.253
									C38.956,21.67,38.901,21.696,38.845,21.696z" class="colorffffff svgShape"/><path fill="#fff" d="M28.477,24.11c-1.281,0-2.433-1.041-2.569-2.322c-0.067-0.631,0.117-1.225,0.519-1.672
									c0.399-0.444,0.964-0.688,1.591-0.688c0.343,0,0.68,0.072,1.002,0.215c0.092,0.041,0.133,0.148,0.093,0.239
									c-0.041,0.092-0.148,0.133-0.239,0.093c-0.276-0.122-0.564-0.184-0.855-0.184c-0.522,0-0.992,0.202-1.321,0.568
									c-0.332,0.369-0.484,0.863-0.428,1.39c0.117,1.101,1.108,1.997,2.209,1.997c0.522,0,0.991-0.202,1.321-0.568
									c0.332-0.37,0.485-0.863,0.428-1.391c-0.011-0.1,0.062-0.189,0.161-0.2c0.102-0.009,0.189,0.062,0.2,0.161
									c0.067,0.631-0.117,1.225-0.519,1.672C29.669,23.866,29.104,24.11,28.477,24.11z" class="colorffffff svgShape"/><path fill="#fff" d="M29.629,20.608h-1.234c-0.1,0-0.181-0.081-0.181-0.182c0-0.1,0.081-0.181,0.181-0.181h1.033
									l-0.11-1.034c-0.01-0.1,0.062-0.189,0.161-0.2c0.099-0.009,0.189,0.062,0.2,0.161l0.131,1.234
									c0.005,0.051-0.011,0.102-0.046,0.14C29.73,20.586,29.681,20.608,29.629,20.608z" class="colorffffff svgShape"/><g class="color000000 svgShape"><path fill="#fff" d="M23.09,21.951h-4.828c-0.1,0-0.181-0.081-0.181-0.181c0-0.1,0.081-0.182,0.181-0.182h4.828
									c0.1,0,0.181,0.081,0.181,0.182C23.272,21.869,23.19,21.951,23.09,21.951z" class="colorffffff svgShape"/><path fill="#fff" d="M20.903,24.337c-0.043,0-0.087-0.015-0.122-0.047l-2.64-2.387c-0.074-0.067-0.08-0.181-0.014-0.255
									l2.133-2.386c0.067-0.075,0.181-0.081,0.256-0.014c0.075,0.067,0.081,0.181,0.014,0.256l-2.012,2.252l2.507,2.266
									c0.074,0.067,0.08,0.182,0.013,0.256C21.002,24.317,20.952,24.337,20.903,24.337z" class="colorffffff svgShape"/></g><g class="color000000 svgShape"><path fill="#d8eaf3" d="M64.546,22.976H49.778c-0.721,0-1.368-0.585-1.445-1.306l0,0c-0.077-0.721,0.446-1.306,1.167-1.306
								h14.768c0.721,0,1.368,0.585,1.445,1.306l0,0C65.79,22.391,65.267,22.976,64.546,22.976z" class="colord8e5f3 svgShape"/></g><g class="color000000 svgShape"><path fill="#d8eaf3" d="M74.304,22.976h-4.93c-0.721,0-1.368-0.585-1.445-1.306l0,0c-0.077-0.721,0.446-1.306,1.167-1.306h4.93
								c0.721,0,1.368,0.585,1.445,1.306l0,0C75.548,22.391,75.025,22.976,74.304,22.976z" class="colord8e5f3 svgShape"/></g><g class="color000000 svgShape"><path d="M95.893,30.501H16.938c-0.1,0-0.181-0.081-0.181-0.182c0-0.1,0.081-0.181,0.181-0.181h78.955
								c0.1,0,0.182,0.081,0.182,0.181C96.074,30.42,95.993,30.501,95.893,30.501z" class="color000000 svgShape"/></g><g class="color000000 svgShape"><path d="M107.802,145.267H29.411c-2.091,0-3.973-1.701-4.195-3.791L11.855,15.911c-0.109-1.025,0.19-1.989,0.842-2.714
								c0.647-0.719,1.564-1.116,2.581-1.116H93.67c2.091,0,3.973,1.701,4.195,3.791l13.36,125.565
								c0.109,1.025-0.19,1.989-0.842,2.714C109.736,144.871,108.819,145.267,107.802,145.267z M15.278,12.445
								c-0.913,0-1.734,0.354-2.312,0.996c-0.582,0.647-0.849,1.511-0.751,2.433l13.36,125.565c0.203,1.912,1.924,3.467,3.835,3.467
								h78.391c0.913,0,1.734-0.354,2.311-0.995c0.582-0.647,0.849-1.511,0.751-2.433L97.504,15.911
								C97.301,14,95.58,12.445,93.67,12.445H15.278z" class="color000000 svgShape"/></g><g class="color000000 svgShape"><path d="M61.594,139.464H39.855c-0.109,0-0.197-0.088-0.197-0.197c0-0.109,0.088-0.197,0.197-0.197h21.739
										c0.109,0,0.197,0.088,0.197,0.197C61.791,139.376,61.703,139.464,61.594,139.464z" class="color000000 svgShape"/><path d="M73.389,139.464h-6.773c-0.109,0-0.197-0.088-0.197-0.197c0-0.109,0.088-0.197,0.197-0.197h6.773
										c0.109,0,0.197,0.088,0.197,0.197C73.586,139.376,73.498,139.464,73.389,139.464z" class="color000000 svgShape"/><path d="M87.408,139.464h-9.33c-0.109,0-0.197-0.088-0.197-0.197c0-0.109,0.088-0.197,0.197-0.197h9.33
										c0.109,0,0.197,0.088,0.197,0.197C87.605,139.376,87.517,139.464,87.408,139.464z" class="color000000 svgShape"/><path fill="#3eb8f5" d="M35.43,49.416c-0.026-0.241-0.131-0.427-0.315-0.556c-0.184-0.129-0.506-0.265-0.964-0.409
									c-0.458-0.143-0.824-0.285-1.098-0.424c-0.745-0.381-1.152-0.893-1.22-1.538c-0.036-0.335,0.027-0.634,0.188-0.897
									c0.161-0.263,0.41-0.468,0.748-0.616c0.338-0.148,0.727-0.222,1.167-0.222c0.443,0,0.846,0.08,1.21,0.241
									c0.364,0.161,0.657,0.387,0.88,0.68c0.223,0.293,0.354,0.625,0.394,0.997h-1.278c-0.03-0.284-0.143-0.505-0.339-0.663
									c-0.196-0.158-0.456-0.236-0.779-0.236c-0.313,0-0.548,0.066-0.708,0.198c-0.159,0.132-0.227,0.306-0.204,0.522
									c0.022,0.202,0.141,0.371,0.359,0.507c0.218,0.136,0.53,0.264,0.938,0.383c0.75,0.219,1.309,0.49,1.676,0.814
									c0.367,0.324,0.576,0.727,0.627,1.21c0.057,0.537-0.101,0.958-0.475,1.263c-0.374,0.305-0.904,0.458-1.592,0.458
									c-0.477,0-0.921-0.087-1.332-0.262c-0.411-0.175-0.735-0.414-0.973-0.718c-0.238-0.304-0.379-0.656-0.421-1.057h1.283
									c0.073,0.684,0.518,1.027,1.336,1.027c0.304,0,0.535-0.062,0.692-0.185C35.386,49.811,35.453,49.638,35.43,49.416z" class="colorf57a3e svgShape"/><path fill="#3eb8f5" d="M39.284,51.044h-1.278l-0.66-6.204h1.278L39.284,51.044z" class="colorf57a3e svgShape"/><path fill="#3eb8f5" d="M45.468,50.26c-0.201,0.276-0.503,0.489-0.908,0.641c-0.404,0.152-0.862,0.228-1.373,0.228
									c-0.537,0-1.02-0.117-1.45-0.352c-0.43-0.234-0.778-0.574-1.046-1.021c-0.268-0.446-0.436-0.97-0.506-1.572l-0.045-0.422
									c-0.066-0.619-0.019-1.155,0.142-1.608c0.161-0.453,0.425-0.8,0.793-1.04c0.368-0.24,0.816-0.36,1.344-0.36
									c0.736,0,1.33,0.175,1.782,0.526c0.452,0.351,0.752,0.861,0.9,1.532h-1.244c-0.095-0.355-0.248-0.615-0.46-0.78
									c-0.212-0.165-0.489-0.247-0.829-0.247c-0.435,0-0.748,0.163-0.941,0.49c-0.193,0.327-0.256,0.812-0.19,1.457l0.042,0.396
									c0.069,0.651,0.245,1.142,0.528,1.474c0.282,0.332,0.662,0.498,1.139,0.498c0.48,0,0.812-0.102,0.994-0.307l-0.114-1.069
									h-1.163l-0.1-0.942h2.441L45.468,50.26z" class="colorf57a3e svgShape"/><path fill="#3eb8f5" d="M51.806,51.044h-1.278l-2.923-4.082l0.434,4.082h-1.278l-0.66-6.204h1.278l2.928,4.09l-0.435-4.09
									h1.274L51.806,51.044z" class="colorf57a3e svgShape"/><path fill="#3eb8f5" d="M56.803,51.044h-1.278l-0.66-6.204h1.278L56.803,51.044z" class="colorf57a3e svgShape"/><path fill="#3eb8f5" d="M63.207,51.044h-1.278l-2.922-4.082l0.434,4.082h-1.278l-0.66-6.204h1.278l2.928,4.09l-0.435-4.09
									h1.274L63.207,51.044z" class="colorf57a3e svgShape"/><path fill="#d8eaf3" d="M83.188,69.571H36.088c-3.005,0-5.701-2.436-6.021-5.442l0,0c-0.32-3.005,1.857-5.442,4.863-5.442
									H82.03c3.005,0,5.701,2.436,6.021,5.442l0,0C88.37,67.135,86.193,69.571,83.188,69.571z" class="colord8e5f3 svgShape"/><path fill="#fff" d="M84.363,67.625H37.263c-3.005,0-5.701-2.436-6.021-5.442l0,0c-0.32-3.005,1.857-5.442,4.863-5.442
									h47.099c3.005,0,5.701,2.436,6.021,5.442l0,0C89.545,65.189,87.368,67.625,84.363,67.625z" class="colorffffff svgShape"/><path d="M84.363,67.822H37.263c-3.098,0-5.887-2.52-6.217-5.618c-0.161-1.516,0.281-2.94,1.244-4.012
									c0.956-1.063,2.311-1.648,3.815-1.648h47.099c3.098,0,5.887,2.52,6.217,5.618c0.161,1.516-0.281,2.94-1.244,4.012
									C87.222,67.237,85.867,67.822,84.363,67.822z M36.105,56.939c-1.391,0-2.642,0.539-3.522,1.518
									c-0.887,0.987-1.294,2.303-1.145,3.706c0.309,2.903,2.922,5.265,5.824,5.265h47.099c1.391,0,2.642-0.539,3.522-1.517
									c0.887-0.987,1.294-2.303,1.145-3.706c-0.309-2.903-2.922-5.265-5.824-5.265H36.105z" class="color000000 svgShape"/><path fill="#d8eaf3" d="M85.278,89.219H38.179c-3.005,0-5.701-2.436-6.021-5.442l0,0c-0.32-3.005,1.857-5.442,4.863-5.442
									H84.12c3.005,0,5.701,2.436,6.021,5.442l0,0C90.461,86.783,88.284,89.219,85.278,89.219z" class="colord8e5f3 svgShape"/><path fill="#fff" d="M86.453,87.273H39.354c-3.005,0-5.701-2.436-6.021-5.442l0,0c-0.32-3.005,1.857-5.442,4.863-5.442
									h47.099c3.005,0,5.701,2.436,6.021,5.442l0,0C91.636,84.837,89.459,87.273,86.453,87.273z" class="colorffffff svgShape"/><path d="M86.453,87.471H39.354c-3.098,0-5.887-2.52-6.217-5.618c-0.161-1.516,0.281-2.94,1.244-4.012
									c0.956-1.063,2.311-1.648,3.815-1.648h47.099c3.098,0,5.887,2.52,6.217,5.618c0.161,1.516-0.281,2.94-1.244,4.012
									C89.312,86.885,87.958,87.471,86.453,87.471z M38.196,76.588c-1.391,0-2.642,0.539-3.522,1.518
									c-0.887,0.987-1.294,2.303-1.145,3.706c0.309,2.903,2.922,5.265,5.824,5.265h47.099c1.391,0,2.642-0.539,3.522-1.517
									c0.887-0.987,1.294-2.303,1.145-3.706c-0.309-2.903-2.922-5.265-5.824-5.265H38.196z" class="color000000 svgShape"/><path fill="#fff" d="M37.776,60.417l0.376,3.532L37.776,60.417z" class="colorffffff svgShape"/><path d="M38.152,64.147c-0.1,0-0.185-0.075-0.196-0.176l-0.376-3.532c-0.012-0.108,0.067-0.206,0.175-0.217
										c0.11-0.01,0.206,0.067,0.217,0.175l0.376,3.532c0.012,0.108-0.067,0.206-0.175,0.217
										C38.166,64.146,38.159,64.147,38.152,64.147z" class="color000000 svgShape"/><path fill="#fff" d="M39.73,62.183h-3.532H39.73z" class="colorffffff svgShape"/><path d="M39.73,62.381h-3.532c-0.109,0-0.197-0.088-0.197-0.197s0.088-0.197,0.197-0.197h3.532
										c0.109,0,0.197,0.088,0.197,0.197S39.839,62.381,39.73,62.381z" class="color000000 svgShape"/><path fill="#fff" d="M36.889,61.212l2.15,1.943L36.889,61.212z" class="colorffffff svgShape"/><path d="M39.039,63.352c-0.047,0-0.094-0.017-0.132-0.051l-2.15-1.943c-0.081-0.073-0.087-0.198-0.014-0.279
										c0.073-0.081,0.198-0.088,0.279-0.014l2.15,1.943c0.081,0.073,0.087,0.198,0.014,0.279
										C39.147,63.33,39.093,63.352,39.039,63.352z" class="color000000 svgShape"/><g class="color000000 svgShape"><path fill="#fff" d="M38.833,61.212l-1.736,1.943L38.833,61.212z" class="colorffffff svgShape"/><path d="M37.096,63.352c-0.047,0-0.094-0.017-0.132-0.05c-0.081-0.073-0.088-0.197-0.016-0.279l1.737-1.943
										c0.073-0.081,0.197-0.088,0.279-0.016c0.081,0.073,0.088,0.197,0.016,0.279l-1.737,1.943
										C37.204,63.33,37.15,63.352,37.096,63.352z" class="color000000 svgShape"/></g><g class="color000000 svgShape"><path fill="#fff" d="M44.682,60.417l0.376,3.532L44.682,60.417z" class="colorffffff svgShape"/><path d="M45.057,64.147c-0.099,0-0.185-0.075-0.196-0.176l-0.376-3.532c-0.012-0.108,0.067-0.206,0.175-0.217
										c0.109-0.01,0.206,0.067,0.217,0.175l0.376,3.532c0.012,0.108-0.067,0.206-0.175,0.217
										C45.071,64.146,45.064,64.147,45.057,64.147z" class="color000000 svgShape"/><path fill="#fff" d="M46.635,62.183h-3.532H46.635z" class="colorffffff svgShape"/><path d="M46.635,62.381h-3.532c-0.109,0-0.197-0.088-0.197-0.197s0.088-0.197,0.197-0.197h3.532
										c0.109,0,0.197,0.088,0.197,0.197S46.744,62.381,46.635,62.381z" class="color000000 svgShape"/><g class="color000000 svgShape"><path fill="#fff" d="M43.794,61.212l2.15,1.943L43.794,61.212z" class="colorffffff svgShape"/><path d="M45.944,63.352c-0.047,0-0.095-0.017-0.132-0.051l-2.15-1.943c-0.081-0.073-0.087-0.198-0.014-0.279
										c0.073-0.081,0.198-0.088,0.279-0.014l2.15,1.943c0.081,0.073,0.087,0.198,0.014,0.279
										C46.052,63.33,45.998,63.352,45.944,63.352z" class="color000000 svgShape"/></g><g class="color000000 svgShape"><path fill="#fff" d="M45.738,61.212l-1.737,1.943L45.738,61.212z" class="colorffffff svgShape"/><path d="M44.001,63.352c-0.047,0-0.094-0.017-0.132-0.05c-0.081-0.073-0.088-0.197-0.016-0.279l1.736-1.943
										c0.073-0.081,0.197-0.088,0.279-0.016c0.081,0.073,0.088,0.197,0.016,0.279l-1.736,1.943
										C44.11,63.33,44.056,63.352,44.001,63.352z" class="color000000 svgShape"/></g></g><g class="color000000 svgShape"><path fill="#fff" d="M51.587,60.417l0.376,3.532L51.587,60.417z" class="colorffffff svgShape"/><path d="M51.963,64.147c-0.1,0-0.185-0.075-0.196-0.176l-0.376-3.532c-0.011-0.108,0.067-0.206,0.175-0.217
										c0.108-0.01,0.206,0.067,0.217,0.175l0.376,3.532c0.012,0.108-0.067,0.206-0.175,0.217
										C51.977,64.146,51.97,64.147,51.963,64.147z" class="color000000 svgShape"/><path fill="#fff" d="M53.541,62.183h-3.532H53.541z" class="colorffffff svgShape"/><path d="M53.541,62.381h-3.532c-0.109,0-0.197-0.088-0.197-0.197s0.088-0.197,0.197-0.197h3.532
										c0.109,0,0.197,0.088,0.197,0.197S53.65,62.381,53.541,62.381z" class="color000000 svgShape"/><g class="color000000 svgShape"><path fill="#fff" d="M50.7,61.212l2.15,1.943L50.7,61.212z" class="colorffffff svgShape"/><path d="M52.85,63.352c-0.047,0-0.094-0.017-0.132-0.051l-2.15-1.943c-0.081-0.073-0.087-0.198-0.014-0.279
										c0.073-0.081,0.198-0.088,0.279-0.014l2.15,1.943c0.081,0.073,0.087,0.198,0.014,0.279
										C52.958,63.33,52.904,63.352,52.85,63.352z" class="color000000 svgShape"/></g><g class="color000000 svgShape"><path fill="#fff" d="M52.643,61.212l-1.736,1.943L52.643,61.212z" class="colorffffff svgShape"/><path d="M50.907,63.352c-0.047,0-0.094-0.017-0.132-0.05c-0.081-0.073-0.088-0.197-0.016-0.279l1.736-1.943
										c0.073-0.081,0.197-0.088,0.279-0.016c0.081,0.073,0.088,0.197,0.016,0.279l-1.737,1.943
										C51.015,63.33,50.961,63.352,50.907,63.352z" class="color000000 svgShape"/></g></g><g class="color000000 svgShape"><path fill="#fff" d="M58.492,60.417l0.376,3.532L58.492,60.417z" class="colorffffff svgShape"/><path d="M58.868,64.147c-0.1,0-0.185-0.075-0.196-0.176l-0.376-3.532c-0.012-0.108,0.067-0.206,0.175-0.217
										c0.109-0.01,0.206,0.067,0.217,0.175l0.376,3.532c0.012,0.108-0.067,0.206-0.175,0.217
										C58.882,64.146,58.875,64.147,58.868,64.147z" class="color000000 svgShape"/><path fill="#fff" d="M60.446,62.183h-3.532H60.446z" class="colorffffff svgShape"/><path d="M60.446,62.381h-3.532c-0.109,0-0.197-0.088-0.197-0.197s0.088-0.197,0.197-0.197h3.532
										c0.109,0,0.197,0.088,0.197,0.197S60.555,62.381,60.446,62.381z" class="color000000 svgShape"/><g class="color000000 svgShape"><path fill="#fff" d="M57.605,61.212l2.15,1.943L57.605,61.212z" class="colorffffff svgShape"/><path d="M59.755,63.352c-0.047,0-0.094-0.017-0.132-0.051l-2.15-1.943c-0.081-0.073-0.087-0.198-0.014-0.279
										c0.073-0.081,0.198-0.088,0.279-0.014l2.15,1.943c0.081,0.073,0.087,0.198,0.014,0.279
										C59.863,63.33,59.809,63.352,59.755,63.352z" class="color000000 svgShape"/></g><g class="color000000 svgShape"><path fill="#fff" d="M59.549,61.212l-1.737,1.943L59.549,61.212z" class="colorffffff svgShape"/><path d="M57.812,63.352c-0.047,0-0.094-0.017-0.132-0.05c-0.081-0.073-0.088-0.197-0.016-0.279l1.737-1.943
										c0.072-0.081,0.197-0.088,0.279-0.016c0.081,0.073,0.088,0.197,0.016,0.279l-1.737,1.943
										C57.92,63.33,57.866,63.352,57.812,63.352z" class="color000000 svgShape"/></g></g><g class="color000000 svgShape"><path fill="#fff" d="M65.398,60.417l0.376,3.532L65.398,60.417z" class="colorffffff svgShape"/><path d="M65.773,64.147c-0.1,0-0.185-0.075-0.196-0.176l-0.376-3.532c-0.012-0.108,0.067-0.206,0.175-0.217
										c0.108-0.01,0.206,0.067,0.217,0.175l0.376,3.532c0.011,0.108-0.067,0.206-0.175,0.217
										C65.787,64.146,65.78,64.147,65.773,64.147z" class="color000000 svgShape"/><path fill="#fff" d="M67.351,62.183H63.82H67.351z" class="colorffffff svgShape"/><path d="M67.351,62.381H63.82c-0.109,0-0.197-0.088-0.197-0.197s0.088-0.197,0.197-0.197h3.532
										c0.109,0,0.197,0.088,0.197,0.197S67.461,62.381,67.351,62.381z" class="color000000 svgShape"/><g class="color000000 svgShape"><path fill="#fff" d="M64.511,61.212l2.15,1.943L64.511,61.212z" class="colorffffff svgShape"/><path d="M66.661,63.352c-0.047,0-0.094-0.017-0.132-0.051l-2.15-1.943c-0.081-0.073-0.087-0.198-0.014-0.279
										c0.073-0.081,0.198-0.088,0.279-0.014l2.15,1.943c0.081,0.073,0.087,0.198,0.014,0.279
										C66.768,63.33,66.715,63.352,66.661,63.352z" class="color000000 svgShape"/></g><g class="color000000 svgShape"><path fill="#fff" d="M66.454,61.212l-1.737,1.943L66.454,61.212z" class="colorffffff svgShape"/><path d="M64.717,63.352c-0.047,0-0.094-0.017-0.132-0.05c-0.081-0.073-0.088-0.197-0.016-0.279l1.737-1.943
										c0.072-0.081,0.197-0.088,0.279-0.016c0.081,0.073,0.088,0.197,0.016,0.279l-1.737,1.943
										C64.826,63.33,64.772,63.352,64.717,63.352z" class="color000000 svgShape"/></g></g><g class="color000000 svgShape"><path fill="#6cf" d="M41.463,81.832c-0.083-0.778-0.78-1.408-1.558-1.408c-0.778,0-1.341,0.63-1.258,1.408
									c0.083,0.778,0.78,1.408,1.558,1.408C40.982,83.24,41.546,82.609,41.463,81.832z" class="color8abae7 svgShape"/></g><g class="color000000 svgShape"><path fill="#6cf" d="M48.368,81.832c-0.083-0.778-0.78-1.408-1.558-1.408c-0.778,0-1.341,0.63-1.258,1.408
									c0.083,0.778,0.78,1.408,1.558,1.408S48.451,82.609,48.368,81.832z" class="color8abae7 svgShape"/></g><g class="color000000 svgShape"><path fill="#6cf" d="M55.274,81.832c-0.083-0.778-0.78-1.408-1.558-1.408c-0.778,0-1.341,0.63-1.258,1.408
									c0.083,0.778,0.78,1.408,1.558,1.408C54.793,83.24,55.356,82.609,55.274,81.832z" class="color8abae7 svgShape"/></g><g class="color000000 svgShape"><path fill="#6cf" d="M62.179,81.832c-0.083-0.778-0.78-1.408-1.558-1.408c-0.778,0-1.341,0.63-1.258,1.408
									c0.083,0.778,0.78,1.408,1.558,1.408S62.262,82.609,62.179,81.832z" class="color8abae7 svgShape"/></g><g class="color000000 svgShape"><path fill="#6cf" d="M69.084,81.832c-0.083-0.778-0.78-1.408-1.558-1.408c-0.778,0-1.341,0.63-1.258,1.408
									c0.083,0.778,0.78,1.408,1.558,1.408C68.604,83.24,69.167,82.609,69.084,81.832z" class="color8abae7 svgShape"/></g><g class="color000000 svgShape"><path fill="#d8eaf3" d="M48.72,110.533H38.549c-1.066,0-2.023-0.865-2.136-1.931L35.33,98.431
											c-0.113-1.066,0.659-1.931,1.725-1.931h10.171c1.066,0,2.023,0.865,2.136,1.931l1.082,10.171
											C50.558,109.668,49.786,110.533,48.72,110.533z" class="colord8e5f3 svgShape"/><path fill="#3eb8f5" d="M49.871,109.244H39.7c-1.066,0-2.023-0.864-2.136-1.931l-1.082-10.171
											c-0.114-1.066,0.659-1.931,1.725-1.931h10.171c1.066,0,2.023,0.865,2.136,1.931l1.082,10.171
											C51.71,108.38,50.937,109.244,49.871,109.244z" class="colorf57a3e svgShape"/><path d="M49.871,109.341H39.7c-1.112,0-2.114-0.905-2.232-2.017l-1.082-10.171c-0.058-0.545,0.101-1.058,0.448-1.444
											c0.344-0.383,0.832-0.594,1.374-0.594h10.171c1.112,0,2.114,0.905,2.232,2.017l1.082,10.171
											c0.058,0.546-0.101,1.058-0.448,1.444C50.9,109.13,50.412,109.341,49.871,109.341z M38.207,95.309
											c-0.486,0-0.923,0.188-1.23,0.53c-0.31,0.344-0.452,0.804-0.4,1.294l1.082,10.171c0.108,1.017,1.023,1.845,2.04,1.845
											h10.171c0.486,0,0.923-0.188,1.23-0.53c0.31-0.345,0.452-0.804,0.399-1.294l-1.082-10.171
											c-0.108-1.017-1.023-1.844-2.04-1.844H38.207z" class="color000000 svgShape"/><path fill="#469dc9" d="M43.798,108.461h-1.104c-0.053,0-0.097-0.043-0.097-0.097c0-0.053,0.043-0.097,0.097-0.097h1.104
											c0.053,0,0.097,0.043,0.097,0.097C43.895,108.418,43.851,108.461,43.798,108.461z" class="color4666c9 svgShape"/><path fill="#469dc9" d="M41.917,108.461h-1.9c-0.819,0-1.516-0.613-1.62-1.425l-0.518-4.029
											c-0.007-0.053,0.03-0.101,0.083-0.108c0.052-0.007,0.101,0.031,0.108,0.084l0.518,4.029
											c0.092,0.716,0.706,1.257,1.429,1.257h1.9c0.053,0,0.097,0.043,0.097,0.097C42.014,108.418,41.971,108.461,41.917,108.461
											z" class="color4666c9 svgShape"/><path d="M45.337,100.52c-0.101-0.953-0.956-1.726-1.909-1.726s-1.643,0.773-1.542,1.726
												c0.101,0.953,0.956,1.726,1.909,1.726C44.748,102.245,45.439,101.473,45.337,100.52z" class="color000000 svgShape"/><polygon points="45.586 105.662 42.59 105.662 43.226 100.52 43.998 100.52" class="color000000 svgShape"/><path fill="#fff" d="M46.076,105.758H43.08c-0.028,0-0.054-0.012-0.072-0.033c-0.018-0.021-0.027-0.048-0.023-0.076
											l0.435-3.518c-0.632-0.314-1.066-0.922-1.139-1.602c-0.052-0.49,0.091-0.951,0.403-1.298
											c0.31-0.344,0.748-0.534,1.235-0.534c0.999,0,1.899,0.813,2.005,1.812l0,0c0.073,0.69-0.252,1.322-0.833,1.634l1.078,3.49
											c0.009,0.029,0.004,0.061-0.015,0.086C46.136,105.744,46.107,105.758,46.076,105.758z M43.189,105.565h2.756l-1.063-3.443
											c-0.014-0.046,0.008-0.095,0.051-0.116c0.553-0.26,0.866-0.84,0.799-1.477l0,0c-0.096-0.904-0.91-1.639-1.813-1.639
											c-0.431,0-0.819,0.167-1.091,0.47c-0.275,0.306-0.401,0.714-0.354,1.149c0.067,0.626,0.495,1.206,1.091,1.478
											c0.038,0.018,0.061,0.058,0.056,0.1L43.189,105.565z" class="colorffffff svgShape"/><g class="color000000 svgShape"><path fill="#fff" d="M49.99,98.891c-0.049,0-0.091-0.037-0.096-0.086L49.71,97.08c-0.06-0.567-0.57-1.027-1.136-1.027
											h-1.897c-0.053,0-0.097-0.043-0.097-0.096c0-0.053,0.043-0.097,0.097-0.097h1.897c0.662,0,1.258,0.538,1.328,1.2
											l0.183,1.725c0.006,0.053-0.033,0.101-0.086,0.106C49.997,98.891,49.993,98.891,49.99,98.891z" class="colorffffff svgShape"/></g><g class="color000000 svgShape"><path fill="#fff" d="M45.999,96.053h-1.367c-0.053,0-0.097-0.043-0.097-0.096c0-0.053,0.043-0.097,0.097-0.097h1.367
											c0.053,0,0.097,0.043,0.097,0.097C46.096,96.009,46.052,96.053,45.999,96.053z" class="colorffffff svgShape"/></g><g class="color000000 svgShape"><polygon fill="#d6e8f1" points="91.69 100.474 55.854 100.403 55.334 95.359 91.17 95.43" class="colord6e3f1 svgShape"/><path d="M84.361,98.114l-25.946-0.051c-0.093,0-0.163-0.079-0.156-0.176c0.006-0.097,0.087-0.176,0.179-0.175
												l25.945,0.051c0.093,0,0.163,0.079,0.156,0.176C84.534,98.035,84.453,98.114,84.361,98.114z" class="color000000 svgShape"/><polygon fill="#6cf" points="93.33 108.123 57.494 108.052 56.974 103.008 92.81 103.079" class="color8abae7 svgShape"/><path d="M86.001,105.763l-25.945-0.051c-0.093,0-0.163-0.079-0.156-0.176c0.006-0.097,0.087-0.175,0.179-0.175
												l25.945,0.051c0.093,0,0.163,0.079,0.156,0.176C86.174,105.684,86.093,105.763,86.001,105.763z" class="color000000 svgShape"/><g class="color000000 svgShape"><polygon fill="#469dc9" points="94.115 115.314 58.279 115.244 57.759 110.2 93.595 110.271" class="color4666c9 svgShape"/><path d="M86.786,112.954l-25.945-0.051c-0.093,0-0.163-0.079-0.156-0.176c0.006-0.097,0.087-0.176,0.179-0.175
												l25.945,0.051c0.093,0,0.163,0.079,0.156,0.176C86.959,112.876,86.878,112.954,86.786,112.954z" class="color000000 svgShape"/></g></g></g><g class="color000000 svgShape"><polygon fill="#89c7e6" points="63.279 134.647 54.243 134.647 53.538 126.582 62.574 126.582" class="color89b9e6 svgShape"/><path d="M64.595,134.812h-9.036c-0.086,0-0.157-0.065-0.164-0.151l-0.706-8.065c-0.004-0.046,0.011-0.092,0.043-0.126
										c0.031-0.034,0.075-0.054,0.122-0.054h9.036c0.086,0,0.157,0.065,0.164,0.151l0.706,8.065
										c0.004,0.046-0.011,0.092-0.043,0.126C64.686,134.792,64.641,134.812,64.595,134.812z M55.71,134.482h8.705l-0.677-7.735
										h-8.705L55.71,134.482z" class="color000000 svgShape"/><path d="M59.921,133.03c-0.503,0-0.949-0.409-0.993-0.912l-0.26-2.978c-0.022-0.251,0.056-0.487,0.22-0.665
										c0.163-0.178,0.39-0.276,0.64-0.276c0.503,0,0.949,0.409,0.993,0.912l0.26,2.978c0.022,0.251-0.056,0.487-0.22,0.665
										C60.398,132.932,60.171,133.03,59.921,133.03z M59.527,128.529c-0.156,0-0.297,0.06-0.396,0.169
										c-0.1,0.109-0.148,0.256-0.134,0.414l0.26,2.978c0.03,0.337,0.328,0.611,0.664,0.611c0.156,0,0.297-0.06,0.396-0.168
										c0.1-0.109,0.148-0.257,0.134-0.414l-0.26-2.978C60.162,128.803,59.864,128.529,59.527,128.529z" class="color000000 svgShape"/><path d="M62.574,126.747h-6.336c-0.086,0-0.157-0.065-0.164-0.151l-0.158-1.803c-0.078-0.895,0.198-1.737,0.779-2.37
										c0.577-0.63,1.386-0.977,2.277-0.977c1.83,0,3.449,1.489,3.609,3.318l0.158,1.802c0.004,0.046-0.011,0.092-0.043,0.126
										C62.664,126.728,62.62,126.747,62.574,126.747z M56.389,126.417h6.004l-0.142-1.623c-0.146-1.663-1.617-3.017-3.281-3.017
										c-0.797,0-1.519,0.309-2.033,0.87c-0.517,0.564-0.763,1.317-0.693,2.118L56.389,126.417z" class="color000000 svgShape"/></g><g class="color000000 svgShape"><polygon fill="#89c7e6" points="49.194 134.298 39.791 134.298 39.313 128.845 48.717 128.845" class="color89b9e6 svgShape"/><path fill="#fff" d="M39.552,130.247h9.036H39.552z" class="colorffffff svgShape"/><path d="M48.588,130.412h-9.036c-0.091,0-0.165-0.074-0.165-0.165s0.074-0.165,0.165-0.165h9.036
										c0.091,0,0.165,0.074,0.165,0.165S48.679,130.412,48.588,130.412z" class="color000000 svgShape"/></g><g class="color000000 svgShape"><polygon fill="#469dc8" points="87.661 38.559 63.28 38.559 62.975 35.065 87.356 35.065" class="color4666c8 svgShape"/><path fill="#fff" d="M65.989,40.69h19.338H65.989z" class="colorffffff svgShape"/><path d="M85.327,40.855H65.989c-0.091,0-0.165-0.074-0.165-0.165c0-0.091,0.074-0.165,0.165-0.165h19.338
										c0.091,0,0.165,0.074,0.165,0.165C85.493,40.781,85.419,40.855,85.327,40.855z" class="color000000 svgShape"/><path fill="#fff" d="M73.789,45.568H87.4H73.789z" class="colorffffff svgShape"/><path d="M87.4,45.733H73.789c-0.091,0-0.165-0.074-0.165-0.165c0-0.091,0.074-0.165,0.165-0.165H87.4
										c0.091,0,0.165,0.074,0.165,0.165C87.565,45.659,87.491,45.733,87.4,45.733z" class="color000000 svgShape"/><g class="color000000 svgShape"><path fill="#fff" d="M78.478,47.437H87.4H78.478z" class="colorffffff svgShape"/><path d="M87.4,47.602h-8.922c-0.091,0-0.165-0.074-0.165-0.165c0-0.091,0.074-0.165,0.165-0.165H87.4
										c0.091,0,0.165,0.074,0.165,0.165C87.565,47.528,87.491,47.602,87.4,47.602z" class="color000000 svgShape"/></g></g><g class="color000000 svgShape"><path fill="#89c7e6" d="M86.48,73.078l2.174,18.236l-4.326-2.301c-1.741-0.926-2.954-2.656-3.178-4.531l-1.029-8.631
										C80.122,75.851,84.675,76.484,86.48,73.078z" class="color89b9e6 svgShape"/><path fill="#d7e9f2" d="M86.48,73.078l2.174,18.236l3.777-2.301c1.52-0.926,2.321-2.656,2.097-4.531L93.5,75.851
										C93.5,75.851,89.098,76.484,86.48,73.078z" class="colord7e4f2 svgShape"/><path d="M88.657,91.39c-0.012,0-0.025-0.003-0.036-0.009l-4.326-2.301c-1.759-0.936-2.993-2.695-3.219-4.591l-1.029-8.631
										c-0.003-0.023,0.005-0.045,0.021-0.061c0.016-0.016,0.039-0.023,0.062-0.02c0.045,0.006,4.523,0.586,6.284-2.735
										c0.012-0.022,0.034-0.037,0.06-0.038c0.025-0.002,0.051,0.01,0.066,0.031c2.559,3.329,6.904,2.749,6.947,2.743
										c0.021-0.003,0.041,0.003,0.058,0.016c0.017,0.013,0.027,0.032,0.03,0.052l1.029,8.631c0.227,1.9-0.59,3.663-2.131,4.602
										l-3.777,2.301C88.684,91.386,88.671,91.39,88.657,91.39z M80.208,75.936l1.018,8.539c0.22,1.846,1.422,3.559,3.137,4.472
										l4.287,2.281l3.741-2.279c1.492-0.909,2.283-2.618,2.063-4.46l-1.02-8.554c-0.279,0.03-1.267,0.107-2.474-0.119
										c-1.293-0.242-3.107-0.891-4.467-2.601c-0.543,0.969-1.645,2.168-3.852,2.601C81.504,76.038,80.51,75.966,80.208,75.936z" class="color000000 svgShape"/><path d="M81.091,76.832c-0.02,0-0.039-0.008-0.053-0.022c-0.015-0.014-0.024-0.034-0.024-0.053
											c-0.001-0.02,0.007-0.039,0.021-0.053c0.003-0.004,0.007-0.007,0.011-0.009c0.004-0.003,0.008-0.005,0.013-0.007
											c0.004-0.002,0.009-0.004,0.014-0.005c0.01-0.002,0.02-0.002,0.029,0c0.005,0.001,0.009,0.002,0.014,0.005
											c0.005,0.002,0.008,0.004,0.013,0.007c0.004,0.002,0.008,0.005,0.012,0.009c0.015,0.014,0.023,0.034,0.023,0.053
											c0.001,0.02-0.006,0.039-0.02,0.053c-0.004,0.003-0.007,0.006-0.011,0.009c-0.004,0.003-0.008,0.005-0.013,0.007
											c-0.005,0.002-0.01,0.004-0.014,0.005C81.101,76.831,81.097,76.832,81.091,76.832z" class="color000000 svgShape"/><path d="M81.797,76.731c-0.005-0.041,0.025-0.077,0.066-0.081l0,0l0,0l0,0c0.041-0.004,0.079,0.028,0.084,0.069l0,0
											c0.004,0.041-0.025,0.078-0.067,0.081l0,0c-0.002,0-0.004,0.001-0.006,0.001l0,0
											C81.835,76.801,81.801,76.771,81.797,76.731z M82.573,76.644c-0.008-0.041,0.019-0.08,0.06-0.087l0,0
											c0.04-0.007,0.08,0.021,0.089,0.062l0,0c0.008,0.041-0.019,0.08-0.06,0.087l0,0c-0.004,0.001-0.008,0.002-0.012,0.002l0,0
											C82.613,76.707,82.58,76.681,82.573,76.644z M83.337,76.489c-0.012-0.04,0.011-0.081,0.051-0.092l0,0
											c0.04-0.01,0.082,0.014,0.094,0.054l0,0c0.011,0.04-0.012,0.081-0.051,0.092l0,0c-0.007,0.001-0.013,0.002-0.019,0.002
											l0,0C83.378,76.545,83.347,76.522,83.337,76.489z M84.079,76.26c-0.016-0.038,0.003-0.082,0.041-0.096l0,0l0,0l0,0
											c0.038-0.015,0.082,0.005,0.098,0.044l0,0c0.016,0.039-0.003,0.083-0.041,0.097l0,0c-0.009,0.003-0.018,0.005-0.026,0.005
											l0,0C84.121,76.309,84.092,76.291,84.079,76.26z M84.79,75.953c-0.02-0.037-0.006-0.082,0.03-0.101l0,0
											c0.036-0.02,0.082-0.005,0.102,0.032l0,0c0.021,0.037,0.007,0.082-0.029,0.102l0,0c-0.011,0.005-0.022,0.008-0.034,0.008
											l0,0C84.832,75.995,84.805,75.979,84.79,75.953z M85.457,75.562c-0.024-0.035-0.017-0.081,0.016-0.105l0,0l0,0l0,0
											c0.034-0.024,0.081-0.015,0.105,0.02l0,0c0.024,0.034,0.018,0.081-0.016,0.105l0,0c-0.012,0.009-0.027,0.013-0.042,0.013
											l0,0C85.497,75.595,85.472,75.583,85.457,75.562z M86.064,75.086c-0.028-0.031-0.027-0.079,0.003-0.106l0,0l0,0l0,0
											c0.03-0.029,0.077-0.026,0.106,0.005l0,0c0.029,0.031,0.028,0.078-0.002,0.106l0,0c-0.014,0.013-0.032,0.02-0.05,0.02l0,0
											C86.101,75.111,86.08,75.103,86.064,75.086z" class="color000000 svgShape"/><path d="M86.649,74.547c-0.02,0-0.039-0.008-0.053-0.022c-0.008-0.008-0.013-0.016-0.017-0.025
											c-0.004-0.009-0.007-0.019-0.007-0.029c0-0.005,0-0.01,0.001-0.014c0.001-0.005,0.002-0.01,0.004-0.014
											c0.001-0.005,0.003-0.009,0.006-0.013c0.003-0.005,0.006-0.008,0.009-0.012c0.02-0.021,0.053-0.027,0.081-0.016
											c0.01,0.004,0.018,0.009,0.025,0.016c0.015,0.014,0.023,0.034,0.024,0.053c0,0.01-0.001,0.02-0.004,0.029
											c-0.004,0.01-0.009,0.017-0.016,0.025c-0.007,0.007-0.015,0.012-0.024,0.016C86.668,74.546,86.659,74.547,86.649,74.547z" class="color000000 svgShape"/><path d="M91.918,76.797L91.918,76.797c-0.042-0.003-0.074-0.04-0.072-0.081l0,0c0.002-0.041,0.038-0.072,0.079-0.069l0,0
											l0,0l0,0c0.041,0.003,0.074,0.039,0.072,0.081l0,0c-0.003,0.039-0.034,0.069-0.073,0.069l0,0
											C91.922,76.797,91.92,76.797,91.918,76.797z M91.088,76.696c-0.041-0.007-0.07-0.046-0.064-0.087l0,0
											c0.006-0.042,0.043-0.069,0.085-0.062l0,0c0.042,0.007,0.07,0.046,0.065,0.087l0,0c-0.005,0.037-0.036,0.063-0.072,0.063
											l0,0C91.096,76.696,91.092,76.696,91.088,76.696z M90.267,76.523L90.267,76.523c-0.041-0.011-0.066-0.051-0.057-0.092l0,0
											c0.008-0.04,0.049-0.064,0.09-0.054l0,0c0,0,0,0-0.001,0l0,0c0.041,0.011,0.066,0.052,0.057,0.092l0,0
											c-0.007,0.034-0.037,0.056-0.071,0.056l0,0C90.279,76.525,90.273,76.525,90.267,76.523z M89.463,76.278
											c-0.04-0.014-0.061-0.057-0.048-0.096l0,0c0.013-0.039,0.055-0.059,0.095-0.045l0,0c0.04,0.014,0.061,0.057,0.048,0.096
											l0,0c-0.01,0.031-0.038,0.05-0.069,0.05l0,0C89.48,76.282,89.471,76.281,89.463,76.278z M88.684,75.955L88.684,75.955
											c-0.038-0.018-0.056-0.063-0.039-0.1l0,0c0.017-0.038,0.062-0.053,0.099-0.035l0,0c0.038,0.017,0.055,0.062,0.038,0.1l0,0
											c-0.012,0.027-0.038,0.043-0.066,0.043l0,0C88.705,75.963,88.695,75.961,88.684,75.955z M87.939,75.555
											c-0.036-0.022-0.048-0.069-0.027-0.104l0,0c0.021-0.035,0.066-0.046,0.102-0.024l0,0c0.036,0.022,0.049,0.068,0.028,0.103
											l0,0c-0.014,0.023-0.038,0.036-0.063,0.036l0,0C87.966,75.566,87.952,75.562,87.939,75.555z M87.24,75.077
											c-0.034-0.026-0.041-0.073-0.016-0.105l0,0c0.025-0.033,0.072-0.038,0.105-0.013l0,0l0,0l0,0
											c0.034,0.026,0.041,0.073,0.016,0.105l0,0c-0.014,0.02-0.036,0.029-0.058,0.029l0,0
											C87.271,75.093,87.254,75.088,87.24,75.077z" class="color000000 svgShape"/><path d="M92.751,76.832c-0.02,0-0.039-0.008-0.054-0.022c-0.007-0.007-0.013-0.016-0.017-0.025
											c-0.005-0.009-0.007-0.019-0.007-0.029c0-0.01,0.001-0.02,0.005-0.029c0.003-0.01,0.008-0.018,0.015-0.025
											c0.02-0.021,0.053-0.028,0.082-0.016c0.009,0.004,0.018,0.009,0.025,0.016c0.007,0.007,0.013,0.015,0.017,0.025
											c0.004,0.009,0.007,0.019,0.007,0.029c0,0.01-0.002,0.02-0.005,0.029c-0.003,0.009-0.008,0.017-0.015,0.025
											C92.79,76.824,92.771,76.832,92.751,76.832z" class="color000000 svgShape"/><path d="M89.157,89.948c-0.022-0.036-0.012-0.082,0.023-0.103l0,0c0.035-0.022,0.082-0.01,0.104,0.026l0,0
											c0.022,0.036,0.012,0.082-0.022,0.103l0,0c-0.012,0.007-0.025,0.011-0.039,0.011l0,0
											C89.198,89.985,89.172,89.971,89.157,89.948z M89.841,89.532c-0.022-0.035-0.012-0.082,0.022-0.103l0,0
											c0.036-0.021,0.082-0.01,0.105,0.026l0,0c0.022,0.035,0.012,0.081-0.023,0.103l0,0c-0.012,0.007-0.025,0.01-0.038,0.01
											l0,0C89.881,89.568,89.856,89.555,89.841,89.532z M90.523,89.116c-0.022-0.036-0.012-0.082,0.023-0.104l0,0
											c0.035-0.021,0.082-0.009,0.104,0.026l0,0c0.023,0.035,0.012,0.082-0.022,0.103l0,0c-0.012,0.007-0.025,0.01-0.039,0.01
											l0,0C90.564,89.152,90.538,89.139,90.523,89.116z M91.207,88.699c-0.022-0.035-0.012-0.082,0.023-0.103l0,0
											c0.035-0.021,0.081-0.01,0.104,0.026l0,0c0.022,0.035,0.012,0.081-0.023,0.103l0,0c-0.012,0.007-0.024,0.01-0.038,0.01
											l0,0C91.247,88.736,91.222,88.723,91.207,88.699z M91.89,88.284c-0.023-0.035-0.013-0.082,0.022-0.103l0,0
											c0.035-0.022,0.082-0.011,0.105,0.025l0,0c0.022,0.035,0.013,0.081-0.022,0.103l0,0c0,0,0,0,0.001,0l0,0
											c-0.013,0.007-0.026,0.011-0.039,0.011l0,0C91.93,88.32,91.905,88.307,91.89,88.284z M92.526,87.803
											c-0.03-0.03-0.03-0.078,0-0.107l0,0c0.029-0.029,0.077-0.027,0.106,0.003l0,0c0.03,0.03,0.03,0.077,0.001,0.106l0,0l0,0
											l0,0c-0.015,0.014-0.033,0.021-0.051,0.021l0,0C92.562,87.826,92.542,87.818,92.526,87.803z M93.042,87.196
											c-0.035-0.023-0.045-0.071-0.023-0.105l0,0c0.022-0.035,0.069-0.044,0.104-0.02l0,0c0.035,0.023,0.045,0.071,0.023,0.105
											l0,0l0,0l0,0c-0.014,0.022-0.037,0.033-0.062,0.033l0,0C93.071,87.209,93.056,87.204,93.042,87.196z M93.417,86.49
											c-0.039-0.015-0.058-0.06-0.044-0.098l0,0c0.015-0.038,0.058-0.056,0.097-0.041l0,0c0.04,0.016,0.059,0.06,0.045,0.099
											l0,0c-0.011,0.029-0.038,0.047-0.069,0.047l0,0C93.437,86.496,93.427,86.494,93.417,86.49z M93.638,85.718
											c-0.041-0.007-0.069-0.047-0.063-0.088l0,0c0.007-0.041,0.045-0.067,0.086-0.06l0,0c0.041,0.008,0.069,0.047,0.063,0.088
											l0,0c-0.006,0.036-0.036,0.061-0.073,0.061l0,0C93.647,85.719,93.642,85.719,93.638,85.718z M93.622,84.838
											c-0.001-0.041,0.031-0.076,0.073-0.076l0,0c0.041,0,0.076,0.033,0.078,0.075l0,0l0,0l0,0
											c0.001,0.041-0.031,0.075-0.072,0.075l0,0C93.658,84.914,93.623,84.88,93.622,84.838z M93.541,84.036
											c-0.005-0.041,0.025-0.078,0.066-0.082l0,0c0.041-0.003,0.079,0.027,0.084,0.069l0,0c0.005,0.041-0.024,0.078-0.065,0.082
											l0,0c-0.003,0-0.005,0-0.008,0l0,0C93.579,84.104,93.546,84.075,93.541,84.036z M93.444,83.228
											c-0.005-0.041,0.025-0.078,0.066-0.081l0,0c0.041-0.004,0.079,0.026,0.084,0.068l0,0c0.004,0.041-0.025,0.078-0.066,0.082
											l0,0c-0.002,0-0.005,0-0.007,0l0,0C93.483,83.296,93.449,83.267,93.444,83.228z M93.348,82.42
											c-0.004-0.041,0.025-0.078,0.066-0.082l0,0c0.041-0.004,0.079,0.027,0.084,0.069l0,0c0.004,0.041-0.025,0.078-0.066,0.082
											l0,0c-0.002,0-0.005,0-0.007,0l0,0C93.387,82.488,93.353,82.459,93.348,82.42z M93.252,81.612
											c-0.005-0.041,0.025-0.078,0.066-0.082l0,0c0.041-0.003,0.078,0.027,0.083,0.069l0,0c0.004,0.041-0.025,0.078-0.066,0.082
											l0,0c-0.002,0-0.005,0-0.007,0l0,0C93.29,81.68,93.256,81.651,93.252,81.612z M93.156,80.804
											c-0.005-0.041,0.025-0.078,0.065-0.082l0,0c0.042-0.003,0.079,0.027,0.084,0.069l0,0c0.005,0.041-0.025,0.078-0.066,0.082
											l0,0c-0.002,0-0.005,0-0.007,0l0,0C93.194,80.872,93.16,80.843,93.156,80.804z M93.059,79.995
											c-0.005-0.041,0.025-0.078,0.066-0.082l0,0c0.041-0.003,0.078,0.027,0.084,0.069l0,0c0.005,0.041-0.025,0.078-0.066,0.081
											l0,0c-0.002,0.001-0.005,0.001-0.007,0.001l0,0C93.098,80.064,93.063,80.035,93.059,79.995z M92.963,79.188
											c-0.005-0.041,0.025-0.078,0.066-0.082l0,0c0.041-0.004,0.078,0.027,0.083,0.069l0,0c0.005,0.041-0.025,0.078-0.066,0.081
											l0,0c-0.002,0.001-0.004,0.001-0.007,0.001l0,0C93.001,79.256,92.967,79.227,92.963,79.188z M92.866,78.38
											c-0.005-0.042,0.025-0.078,0.066-0.082l0,0c0.041-0.004,0.078,0.027,0.084,0.069l0,0c0.005,0.041-0.025,0.078-0.066,0.081
											l0,0c-0.002,0.001-0.005,0.001-0.007,0.001l0,0C92.905,78.448,92.871,78.419,92.866,78.38z M92.77,77.572
											c-0.005-0.041,0.025-0.078,0.066-0.082l0,0c0.041-0.004,0.079,0.027,0.083,0.068l0,0c0.005,0.041-0.024,0.078-0.065,0.082
											l0,0c-0.002,0-0.005,0-0.007,0l0,0C92.808,77.64,92.775,77.611,92.77,77.572z" class="color000000 svgShape"/><path d="M88.539,90.401c-0.005,0-0.01-0.001-0.014-0.002c-0.005-0.001-0.01-0.002-0.015-0.004
											c-0.005-0.002-0.009-0.004-0.013-0.007c-0.005-0.002-0.008-0.006-0.012-0.009c-0.007-0.007-0.012-0.015-0.017-0.025
											c-0.004-0.009-0.007-0.019-0.007-0.029c0-0.01,0.002-0.02,0.005-0.029c0.004-0.009,0.008-0.017,0.015-0.025
											c0.004-0.003,0.007-0.006,0.012-0.009c0.004-0.003,0.008-0.005,0.013-0.007c0.005-0.002,0.009-0.004,0.014-0.005
											c0.009-0.002,0.02-0.002,0.029,0c0.005,0.001,0.009,0.002,0.014,0.005c0.005,0.001,0.009,0.004,0.014,0.007
											c0.004,0.003,0.008,0.006,0.011,0.009c0.007,0.007,0.013,0.015,0.017,0.025c0.004,0.009,0.007,0.019,0.007,0.029
											c0,0.01-0.002,0.02-0.005,0.029c-0.004,0.01-0.008,0.018-0.015,0.025c-0.004,0.003-0.007,0.007-0.011,0.009
											c-0.005,0.003-0.009,0.005-0.013,0.007c-0.004,0.002-0.009,0.004-0.013,0.004C88.549,90.4,88.545,90.401,88.539,90.401z" class="color000000 svgShape"/><path d="M87.751,89.992c-0.037-0.02-0.053-0.065-0.033-0.102l0,0c0.019-0.037,0.064-0.05,0.101-0.031l0,0
											c0.037,0.02,0.052,0.066,0.034,0.102l0,0c-0.013,0.025-0.039,0.039-0.065,0.039l0,0
											C87.775,90.001,87.762,89.998,87.751,89.992z M86.998,89.592c-0.037-0.02-0.052-0.065-0.034-0.102l0,0
											c0.019-0.036,0.064-0.05,0.101-0.03l0,0c0.037,0.02,0.052,0.066,0.033,0.103l0,0c-0.013,0.025-0.038,0.039-0.065,0.039
											l0,0C87.022,89.601,87.01,89.598,86.998,89.592z M86.245,89.191c-0.037-0.02-0.052-0.065-0.033-0.102l0,0
											c0.018-0.037,0.064-0.05,0.101-0.031l0,0c0.038,0.02,0.052,0.066,0.034,0.102l0,0c-0.013,0.025-0.039,0.039-0.065,0.039
											l0,0C86.27,89.2,86.257,89.197,86.245,89.191z M85.493,88.791c-0.038-0.02-0.053-0.065-0.034-0.102l0,0
											c0.019-0.036,0.064-0.05,0.102-0.03l0,0c0.037,0.02,0.053,0.065,0.033,0.102l0,0c-0.013,0.026-0.038,0.04-0.065,0.04l0,0
											C85.517,88.8,85.505,88.797,85.493,88.791z M84.74,88.391c-0.037-0.02-0.052-0.065-0.033-0.102l0,0
											c0.019-0.037,0.064-0.05,0.101-0.031l0,0c0.037,0.02,0.052,0.066,0.034,0.102l0,0c-0.013,0.025-0.039,0.039-0.065,0.039
											l0,0C84.765,88.4,84.752,88.397,84.74,88.391z M84.005,87.939c-0.034-0.026-0.042-0.072-0.019-0.106l0,0
											c0.024-0.033,0.07-0.04,0.105-0.015l0,0c0.034,0.025,0.042,0.072,0.018,0.105l0,0c-0.014,0.02-0.037,0.031-0.059,0.031
											l0,0C84.034,87.954,84.018,87.949,84.005,87.939z M83.349,87.372c-0.03-0.03-0.03-0.078,0-0.107l0,0
											c0.029-0.029,0.077-0.027,0.107,0.003l0,0c0.03,0.03,0.03,0.078,0,0.107l0,0c-0.015,0.013-0.033,0.02-0.051,0.02l0,0
											C83.385,87.395,83.365,87.387,83.349,87.372z M82.797,86.704c-0.024-0.035-0.016-0.081,0.018-0.105l0,0
											c0.034-0.023,0.081-0.013,0.105,0.021h0.001c0.024,0.035,0.016,0.081-0.018,0.105l0,0
											c-0.013,0.008-0.028,0.013-0.042,0.013l0,0C82.836,86.738,82.812,86.726,82.797,86.704z M82.362,85.957
											c-0.018-0.038-0.002-0.083,0.035-0.099l0,0c0.038-0.017,0.083,0.001,0.101,0.038l0,0c0.018,0.038,0.002,0.083-0.035,0.099
											l0,0c-0.01,0.005-0.02,0.007-0.03,0.007l0,0C82.404,86.002,82.376,85.985,82.362,85.957z M82.064,85.148
											c-0.011-0.041,0.012-0.081,0.053-0.091l0,0c0.04-0.009,0.081,0.016,0.092,0.056l0,0c0.011,0.041-0.012,0.081-0.053,0.091
											l0,0c-0.006,0.002-0.012,0.002-0.017,0.002l0,0C82.105,85.206,82.073,85.183,82.064,85.148z M81.914,84.306
											c-0.005-0.042,0.025-0.078,0.066-0.082l0,0c0.041-0.004,0.078,0.027,0.084,0.069l0,0c0.005,0.041-0.025,0.078-0.066,0.082
											l0,0c-0.002,0-0.004,0-0.006,0l0,0C81.952,84.374,81.918,84.345,81.914,84.306z M81.813,83.468
											c-0.004-0.041,0.025-0.078,0.066-0.082l0,0c0.042-0.003,0.079,0.027,0.084,0.068l0,0c0.005,0.041-0.025,0.078-0.066,0.082
											l0,0c-0.002,0-0.004,0-0.007,0l0,0C81.853,83.536,81.818,83.507,81.813,83.468z M81.714,82.63
											c-0.005-0.041,0.025-0.078,0.066-0.082l0,0c0.041-0.003,0.079,0.027,0.084,0.069l0,0c0.004,0.042-0.025,0.078-0.066,0.082
											l0,0c-0.002,0-0.004,0-0.007,0l0,0C81.752,82.698,81.719,82.669,81.714,82.63z M81.614,81.792
											c-0.005-0.041,0.025-0.078,0.066-0.081l0,0c0.041-0.004,0.078,0.027,0.084,0.069l0,0c0.005,0.041-0.025,0.077-0.066,0.081
											l0,0c-0.002,0-0.005,0-0.007,0l0,0C81.652,81.86,81.619,81.831,81.614,81.792z M81.514,80.953
											c-0.005-0.041,0.024-0.078,0.065-0.081l0,0c0.041-0.004,0.079,0.027,0.084,0.068l0,0c0.005,0.041-0.025,0.078-0.066,0.081
											l0,0c-0.002,0-0.005,0.001-0.007,0.001l0,0C81.553,81.023,81.519,80.993,81.514,80.953z M81.414,80.115
											c-0.005-0.041,0.025-0.078,0.066-0.081l0,0c0.041-0.003,0.079,0.027,0.083,0.069l0,0c0.005,0.041-0.024,0.078-0.065,0.082
											l0,0c-0.002,0-0.005,0-0.007,0l0,0C81.453,80.185,81.419,80.155,81.414,80.115z M81.314,79.278
											c-0.005-0.041,0.025-0.078,0.066-0.082l0,0c0.041-0.003,0.078,0.027,0.083,0.068l0,0c0.005,0.042-0.025,0.078-0.066,0.082
											l0,0c-0.002,0-0.005,0-0.006,0l0,0C81.353,79.346,81.319,79.317,81.314,79.278z M81.215,78.44
											c-0.005-0.041,0.024-0.078,0.065-0.081l0,0c0.041-0.004,0.079,0.027,0.084,0.068l0,0c0.005,0.042-0.025,0.078-0.066,0.082
											l0,0c-0.002,0-0.005,0-0.007,0l0,0C81.253,78.508,81.219,78.479,81.215,78.44z M81.114,77.602
											c-0.005-0.041,0.025-0.078,0.066-0.081l0,0c0.041-0.004,0.079,0.027,0.084,0.068l0,0c0.005,0.041-0.024,0.078-0.066,0.081
											l0,0c-0.001,0-0.004,0.001-0.006,0.001l0,0C81.153,77.671,81.119,77.641,81.114,77.602z" class="color000000 svgShape"/><g class="color000000 svgShape"><path d="M88.422,89.413c-0.012,0-0.025-0.003-0.036-0.009l-3.42-1.819c-1.187-0.631-2.018-1.818-2.171-3.096l-0.823-6.9
										c-0.002-0.02,0.003-0.04,0.016-0.055c0.013-0.015,0.031-0.025,0.051-0.027c1.894-0.152,3.517-0.815,4.695-1.918
										c0.026-0.025,0.068-0.026,0.097-0.003c1.444,1.105,3.228,1.769,5.16,1.921c0.037,0.003,0.067,0.032,0.071,0.069l0.823,6.9
										c0.153,1.283-0.399,2.474-1.44,3.108l-2.986,1.819C88.448,89.41,88.435,89.413,88.422,89.413z M82.131,77.65l0.814,6.825
										c0.147,1.229,0.947,2.37,2.089,2.977l3.381,1.799l2.95-1.797c0.992-0.604,1.517-1.741,1.371-2.965l-0.815-6.837
										c-1.915-0.162-3.685-0.821-5.127-1.909C85.611,76.828,84.002,77.486,82.131,77.65z" class="color000000 svgShape"/></g><g class="color000000 svgShape"><path fill="#469dc8" d="M90.312,82.196c-0.181-1.516-1.556-2.745-3.072-2.745c-1.516,0-2.598,1.229-2.417,2.745
										c0.181,1.516,1.556,2.745,3.072,2.745S90.493,83.712,90.312,82.196z" class="color4666c8 svgShape"/></g><g class="color000000 svgShape"><path d="M87.969,85.616c-1.882,0-3.596-1.531-3.82-3.413c-0.109-0.917,0.146-1.779,0.719-2.427c0.57-0.645,1.386-1,2.299-1
										c1.882,0,3.596,1.531,3.821,3.413c0.109,0.917-0.146,1.779-0.719,2.427C89.697,85.261,88.881,85.616,87.969,85.616z
										 M87.171,78.927c-0.869,0-1.647,0.338-2.189,0.951c-0.545,0.617-0.788,1.438-0.684,2.312
										c0.215,1.806,1.86,3.276,3.666,3.276c0.87,0,1.647-0.338,2.189-0.951c0.545-0.616,0.788-1.438,0.684-2.312
										C90.622,80.396,88.977,78.927,87.171,78.927z" class="color000000 svgShape"/></g><g class="color000000 svgShape"><path fill="#fff" d="M87.615,83.493c-0.048,0-0.095-0.018-0.131-0.052l-1.387-1.281c-0.078-0.072-0.084-0.191-0.015-0.266
										c0.069-0.075,0.188-0.078,0.266-0.007L87.552,83l1.053-2.038c0.047-0.091,0.161-0.124,0.253-0.075
										c0.093,0.05,0.13,0.164,0.083,0.256l-1.164,2.253c-0.027,0.051-0.076,0.087-0.133,0.095
										C87.634,83.492,87.624,83.493,87.615,83.493z" class="colorffffff svgShape"/></g></g></g></g><g class="color000000 svgShape"><path fill="#469dc8" d="M125.951,75.989c-3.028,0-6.056-0.895-8.533-2.688c-1.25-0.905-2.355-2.012-3.424-3.083
								c-0.413-0.414-0.833-0.834-1.263-1.245c-1.179,1.178-2.645,2.228-4.353,3.108c-2.314,1.192-5.404,1.791-7.138-0.104
								c-0.785-0.858-1.035-2.083-0.685-3.361c0.439-1.603,1.729-2.984,3.211-3.435c2.333-0.711,5.175,0.106,7.795,2.241
								c0.398,0.324,0.783,0.667,1.16,1.018c0.737-0.777,1.346-1.608,1.816-2.48c1.452-2.698,1.508-5.936,0.142-8.249
								c-1.501-2.541-4.862-3.764-7.342-2.668c-0.097,0.043-0.208-0.001-0.251-0.097c-0.042-0.096,0.001-0.208,0.097-0.25
								c2.692-1.19,6.201,0.077,7.822,2.823c1.432,2.426,1.38,5.81-0.134,8.623c-0.485,0.901-1.115,1.759-1.874,2.56
								c0.432,0.413,0.853,0.834,1.267,1.249c1.058,1.06,2.152,2.156,3.378,3.044c4.848,3.51,11.869,3.489,16.695-0.051
								c4.826-3.54,6.956-10.231,5.064-15.909c-0.033-0.099,0.021-0.207,0.12-0.24c0.1-0.034,0.207,0.021,0.24,0.12
								c1.943,5.831-0.244,12.701-5.2,16.336C132.072,75.075,129.011,75.989,125.951,75.989z M105.509,65.305
								c-0.537,0-1.084,0.072-1.633,0.239c-1.362,0.415-2.549,1.69-2.955,3.172c-0.319,1.166-0.106,2.233,0.599,3.004
								c1.589,1.737,4.495,1.151,6.684,0.023c1.67-0.86,3.102-1.884,4.251-3.031c-0.369-0.344-0.746-0.68-1.134-0.996
								C110.337,66.914,108.045,65.305,105.509,65.305z" class="color4666c8 svgShape"/><path fill="#fff" d="M128.306,76.609c-1.825-4.348-6.829-6.393-11.177-4.569c-4.348,1.825-6.393,6.829-4.568,11.177
									c1.825,4.348,6.829,6.393,11.177,4.569C128.086,85.961,130.131,80.957,128.306,76.609z" class="colorffffff svgShape"/><path d="M120.434,88.646c-1.118,0-2.237-0.218-3.303-0.654c-2.158-0.882-3.843-2.552-4.746-4.701
									c-0.902-2.15-0.913-4.522-0.031-6.68c0.882-2.158,2.552-3.843,4.701-4.746c2.15-0.903,4.522-0.913,6.68-0.031
									c2.158,0.882,3.843,2.552,4.746,4.701c0.902,2.15,0.913,4.522,0.031,6.68c-0.882,2.158-2.552,3.843-4.702,4.746
									C122.724,88.418,121.579,88.646,120.434,88.646z M120.433,71.561c-1.095,0-2.19,0.218-3.23,0.655
									c-2.056,0.863-3.653,2.475-4.497,4.539c-0.843,2.064-0.833,4.333,0.03,6.389c0.863,2.056,2.475,3.653,4.539,4.497
									c2.064,0.844,4.333,0.833,6.389-0.03c2.056-0.863,3.653-2.475,4.497-4.539c0.844-2.064,0.833-4.333-0.03-6.389l0,0
									c-0.863-2.056-2.475-3.653-4.539-4.497C122.572,71.769,121.502,71.561,120.433,71.561z" class="color000000 svgShape"/><path fill="#d7e9f2" d="M126.943,79.004c-1.125-2.68-3.072,0.031-6.308,1.389s-6.535,0.849-5.41,3.529
									c1.125,2.68,4.66,3.752,7.896,2.394C126.356,84.958,128.068,81.684,126.943,79.004z" class="colord7e4f2 svgShape"/><path fill="#469dc8" d="M123.216,76.678c0-1.276-1.035-2.311-2.311-2.311c-1.276,0-2.311,1.035-2.311,2.311
									c0,1.277,1.035,2.311,2.311,2.311C122.181,78.99,123.216,77.955,123.216,76.678z" class="color4666c8 svgShape"/><g class="color000000 svgShape"><path fill="#469dc8" d="M121.226,79.913h-0.642c-1.575,0-2.852,1.277-2.852,2.852v2.29c0,0.555,0.161,1.071,0.435,1.508
									c1.472,0.508,3.254,0.466,4.953-0.247c0.288-0.121,0.563-0.258,0.826-0.407c0.085-0.27,0.13-0.557,0.13-0.854v-2.29
									C124.077,81.19,122.8,79.913,121.226,79.913z" class="color4666c8 svgShape"/></g><g class="color000000 svgShape"><polygon fill="#3eb8f5" points="97.857 58.593 102.999 56.729 105.519 59.326 100.377 61.191" class="colorf57a3e svgShape"/><polygon fill="#3eb8f5" points="97.857 58.593 102.999 56.729 103.268 53.12 98.127 54.985" class="colorf57a3e svgShape"/><path d="M86.567,65.053c-0.005,0-0.011,0-0.016-0.001l-4.878-0.421c-0.076-0.007-0.14-0.057-0.164-0.129
									c-0.024-0.072-0.003-0.151,0.054-0.202l3.579-3.184c0.059-0.053,0.145-0.063,0.215-0.026c0.07,0.037,0.11,0.114,0.099,0.193
									c-0.003,0.021-0.264,2.174,1.233,3.434c0.063,0.053,0.085,0.142,0.053,0.218C86.713,65.007,86.643,65.053,86.567,65.053z
									 M82.145,64.291l3.912,0.337c-0.874-0.995-1.004-2.254-1.003-2.925L82.145,64.291z" class="color000000 svgShape"/><path d="M84.349,63.682c-0.078,0-0.151-0.048-0.179-0.125c-0.036-0.099,0.015-0.208,0.114-0.243l18.65-6.763
									c0.098-0.036,0.208,0.015,0.243,0.114c0.036,0.099-0.015,0.208-0.114,0.243l-18.65,6.763
									C84.393,63.679,84.371,63.682,84.349,63.682z" class="color000000 svgShape"/><path d="M99.202,58.296c-0.005,0-0.009,0-0.014-0.001c-0.105-0.008-0.183-0.099-0.175-0.203l0.269-3.609
									c0.008-0.104,0.096-0.184,0.203-0.175c0.105,0.008,0.183,0.099,0.175,0.204l-0.269,3.609
									C99.384,58.22,99.301,58.296,99.202,58.296z" class="color000000 svgShape"/></g><g class="color000000 svgShape"><path d="M100.377,61.381c-0.05,0-0.1-0.02-0.136-0.058l-2.52-2.598c-0.073-0.075-0.071-0.196,0.004-0.269
								c0.075-0.073,0.195-0.071,0.269,0.004l2.434,2.509l5.026-1.823c0.098-0.036,0.207,0.015,0.243,0.114
								c0.036,0.099-0.015,0.208-0.114,0.243l-5.142,1.865C100.421,61.377,100.399,61.381,100.377,61.381z" class="color000000 svgShape"/></g></g><g class="color000000 svgShape"><path fill="#fff" d="M146.496,135.259c-0.589,5.895-10.021,6.602-10.021,8.725c3.229,1.403,13.873,1.302,18.393-0.707
									l1.651-5.895L146.496,135.259z" class="colorffffff svgShape"/><path d="M136.399,144.158c-0.069-0.03-0.114-0.098-0.114-0.174c0-0.931,1.412-1.555,3.201-2.344
									c2.73-1.206,6.468-2.856,6.822-6.399c0.005-0.054,0.033-0.103,0.077-0.134c0.044-0.032,0.099-0.044,0.151-0.033
									l10.021,2.122c0.051,0.011,0.096,0.042,0.123,0.087c0.027,0.045,0.035,0.099,0.02,0.15l-1.651,5.895
									c-0.015,0.055-0.054,0.099-0.106,0.122c-2.54,1.13-7.029,1.667-11.064,1.667
									C140.727,145.117,137.85,144.788,136.399,144.158z M156.28,137.525l-9.62-2.037c-0.496,3.617-4.26,5.279-7.022,6.499
									c-1.501,0.663-2.81,1.241-2.96,1.876c3.369,1.346,13.585,1.198,18.03-0.725L156.28,137.525z" class="color000000 svgShape"/><path d="M155.241,141.941L155.241,141.941l-0.374,1.335c-4.52,2.01-15.163,2.11-18.393,0.707c0-0.959,1.927-1.63,4.093-2.62
									C141.95,144.912,155.241,141.941,155.241,141.941z" class="color000000 svgShape"/><path fill="#fff" d="M177.936,140.093l0.707,4.834c6.838-0.669,7.074,5.462,14.462,2.554
									c-0.393-2.279-4.244-1.808-4.873-8.882L177.936,140.093z" class="colorffffff svgShape"/><path d="M184.984,146.853c-1.637-0.998-3.331-2.029-6.322-1.737c-0.103,0.011-0.192-0.061-0.206-0.161l-0.708-4.834
									c-0.007-0.05,0.006-0.101,0.036-0.141c0.03-0.04,0.075-0.067,0.125-0.074l10.297-1.494c0.051-0.008,0.104,0.007,0.145,0.039
									c0.041,0.032,0.067,0.08,0.071,0.132c0.399,4.494,2.126,5.891,3.386,6.911c0.716,0.579,1.334,1.08,1.485,1.956
									c0.015,0.089-0.034,0.176-0.118,0.209c-1.46,0.575-2.648,0.803-3.664,0.803
									C187.622,148.461,186.327,147.672,184.984,146.853z M191.569,145.788c-1.294-1.047-3.06-2.476-3.507-6.973l-9.911,1.438
									l0.654,4.468c3.005-0.248,4.719,0.796,6.376,1.806c1.958,1.193,3.808,2.321,7.704,0.834
									C192.716,146.716,192.204,146.303,191.569,145.788z" class="color000000 svgShape"/><path d="M178.644,144.927l-0.218-1.493l0,0c4.541-0.512,10.451,4.266,12.723,1.759c0.943,0.814,1.785,1.285,1.958,2.288
									C185.718,150.389,185.482,144.259,178.644,144.927z" class="color000000 svgShape"/><path fill="#fff" d="M130.661,62.73c0.764,2.681,2.974,4.402,4.937,3.843c1.962-0.559,2.933-3.186,2.169-5.868
									c-0.764-2.681-2.974-4.402-4.936-3.843C130.868,57.422,129.897,60.049,130.661,62.73z" class="colorffffff svgShape"/><path d="M132.564,66.017c-0.964-0.75-1.705-1.899-2.085-3.235l0,0c-0.381-1.335-0.357-2.702,0.067-3.848
									c0.431-1.167,1.224-1.967,2.233-2.255c2.061-0.586,4.379,1.195,5.171,3.973c0.792,2.778-0.24,5.516-2.3,6.103
									c-0.267,0.076-0.54,0.114-0.815,0.114C134.07,66.869,133.286,66.579,132.564,66.017z M132.882,57.045
									c-0.889,0.253-1.593,0.971-1.981,2.021c-0.396,1.071-0.416,2.353-0.057,3.612l0,0c0.359,1.258,1.052,2.338,1.953,3.039
									c0.883,0.688,1.86,0.927,2.749,0.673c1.858-0.53,2.773-3.057,2.038-5.633c-0.642-2.254-2.337-3.81-3.995-3.81
									C133.352,56.947,133.115,56.979,132.882,57.045z" class="color000000 svgShape"/><path d="M157.756,73.896l-13.971,63.686l14.18,3.993l13.055-53.124l5.305,53.812l15.386-1.641l-3.891-69.149
									C187.82,71.475,174.203,66.592,157.756,73.896z" class="color000000 svgShape"/><path fill="#3eb7f4" d="M145.376,49.899c-2.889,2.947-6.779,10.063-6.779,10.063l-9.432-2.958c0,0-3.52,1.898-3.41,9.482
									c13.432,10.885,25.93,8.492,27.58-6.523L145.376,49.899z" class="colorf47a3e svgShape"/><path fill="#3eb7f4" d="M175.441,44.811c10.159,6.126,13.126,26.664,13.126,26.664s-15.777,8.135-32.402,3.537
									c-0.178-14.148-10.789-25.113-10.789-25.113S157.967,34.275,175.441,44.811z" class="colorf47a3e svgShape"/><path fill="#fff" d="M162.413,42.614c-1.954-1.454-0.354-12.257-1.061-16.516c-0.707-4.259-13.559-6.941-14.03,0
									s-3.301,13.878,4.362,12.885c0,0,2.004,5.252,0.472,7.141C152.155,46.124,153.452,51.364,162.413,42.614z" class="colorffffff svgShape"/><path d="M153.569,47.768c-1.279-0.364-1.586-1.548-1.598-1.598c-0.014-0.058-0.001-0.119,0.037-0.165
									c1.312-1.616-0.152-5.978-0.451-6.814c-2.008,0.237-3.401-0.067-4.255-0.926c-1.524-1.534-1.111-4.57-0.633-8.085
									c0.181-1.332,0.369-2.71,0.463-4.095c0.18-2.652,2.166-4.265,5.448-4.424c1.868-0.091,4.016,0.336,5.744,1.14
									c1.868,0.87,3.01,2.029,3.215,3.265c0.281,1.689,0.204,4.321,0.124,7.109c-0.115,3.966-0.245,8.462,0.863,9.287
									c0.045,0.033,0.073,0.084,0.076,0.14c0.004,0.056-0.017,0.11-0.057,0.149c-3.487,3.405-6.235,5.123-8.188,5.123
									C154.078,47.873,153.815,47.838,153.569,47.768z M161.283,33.164c0.08-2.768,0.156-5.383-0.119-7.035
									c-0.374-2.254-4.623-4.28-8.566-4.088c-1.451,0.07-4.852,0.607-5.087,4.07c-0.095,1.397-0.283,2.781-0.465,4.12
									c-0.465,3.415-0.866,6.365,0.526,7.766c0.786,0.792,2.124,1.053,4.088,0.798c0.088-0.012,0.171,0.039,0.202,0.121
									c0.082,0.216,1.972,5.237,0.505,7.246c0.088,0.249,0.419,0.988,1.307,1.241c1.246,0.355,3.724-0.194,8.463-4.784
									C161.044,41.442,161.16,37.416,161.283,33.164z" class="color000000 svgShape"/><path d="M161.352,26.098c0.332,1.996,0.156,5.428,0.078,8.662c-3.615,0.402-8.095-3.057-8.095-3.057l0.314-6.386
									c0,0-3.699,0.231-6.029-0.6C149.625,19.562,160.697,22.153,161.352,26.098z" class="color000000 svgShape"/><path fill="#fff" d="M155.894,31.494c-0.79,1.559-0.441,3.323,0.779,3.941s2.849-0.145,3.638-1.703
									c0.79-1.559,0.441-3.323-0.779-3.941S156.684,29.935,155.894,31.494z" class="colorffffff svgShape"/><path d="M157.582,35.838c1.098,0,2.263-0.764,2.899-2.02c0.836-1.65,0.449-3.532-0.862-4.196
									c-1.311-0.664-3.058,0.137-3.894,1.787c-0.048,0.094-0.01,0.208,0.083,0.255c0.094,0.047,0.208,0.01,0.255-0.084
									c0.741-1.463,2.259-2.189,3.383-1.619c1.124,0.57,1.436,2.223,0.695,3.686c-0.741,1.463-2.259,2.189-3.383,1.62
									c-0.094-0.048-0.208-0.01-0.255,0.084c-0.047,0.093-0.01,0.208,0.084,0.255C156.9,35.763,157.238,35.838,157.582,35.838z" class="color000000 svgShape"/><path d="M146.319,67.29c2.956,0,5.053-0.174,5.099-0.178c0.104-0.009,0.182-0.101,0.173-0.206
									c-0.009-0.104-0.099-0.185-0.206-0.173c-0.099,0.008-9.949,0.826-17.122-1.124c-0.101-0.028-0.206,0.032-0.233,0.133
									c-0.028,0.101,0.032,0.205,0.133,0.233C138.093,67.044,142.811,67.29,146.319,67.29z" class="color000000 svgShape"/><path d="M165.724,74.253c4.406,0,8.601-0.715,11.903-1.509c6.188-1.489,10.662-3.573,10.707-3.594
									c0.095-0.045,0.136-0.158,0.091-0.253c-0.045-0.095-0.157-0.136-0.253-0.091c-0.177,0.083-17.818,8.233-32.075,3.688
									c-0.1-0.032-0.207,0.023-0.239,0.123c-0.032,0.1,0.023,0.207,0.123,0.239C159.164,73.871,162.5,74.253,165.724,74.253z" class="color000000 svgShape"/><path d="M146.666,139.717c0.311,0,0.531-0.022,0.557-0.025c0.104-0.011,0.18-0.105,0.169-0.209
									c-0.011-0.104-0.102-0.179-0.209-0.169c-0.513,0.054-1.953,0.062-2.447-0.539c-0.067-0.081-0.187-0.093-0.267-0.026
									c-0.081,0.067-0.093,0.186-0.026,0.267C144.936,139.617,146.006,139.717,146.666,139.717z" class="color000000 svgShape"/><path d="M145.697,140.982c0.456,0,0.791-0.048,0.828-0.053c0.104-0.015,0.175-0.112,0.16-0.216
									c-0.016-0.104-0.115-0.175-0.216-0.16c-0.023,0.003-2.271,0.322-3.039-0.748c-0.061-0.085-0.18-0.105-0.265-0.044
									c-0.085,0.061-0.105,0.18-0.043,0.265C143.698,140.832,144.888,140.982,145.697,140.982z" class="color000000 svgShape"/><path d="M187.929,143.644c0.999,0,1.582-0.312,1.618-0.332c0.092-0.051,0.125-0.166,0.074-0.258
									c-0.05-0.091-0.166-0.125-0.257-0.075c-0.014,0.008-1.214,0.638-3.133-0.013c-0.1-0.034-0.207,0.02-0.241,0.119
									c-0.034,0.099,0.019,0.207,0.119,0.241C186.811,143.564,187.423,143.644,187.929,143.644z" class="color000000 svgShape"/><path d="M186.17,142.228c0.005,0,0.009,0,0.014,0l2.71-0.196c0.105-0.008,0.183-0.099,0.176-0.203
									c-0.008-0.105-0.099-0.182-0.203-0.176l-2.71,0.196c-0.105,0.008-0.183,0.099-0.176,0.203
									C185.988,142.152,186.071,142.228,186.17,142.228z" class="color000000 svgShape"/><g class="color000000 svgShape"><path d="M154.835,47.834c0.008,0,0.017-0.001,0.025-0.002c0.075-0.01,0.136-0.063,0.157-0.136
									c1.46-5.062,6.513-7.787,6.564-7.814c0.093-0.049,0.128-0.164,0.079-0.257c-0.049-0.093-0.164-0.128-0.257-0.079
									c-0.051,0.027-4.978,2.68-6.626,7.64l-1.888-3.085c-0.055-0.089-0.172-0.118-0.261-0.063
									c-0.09,0.055-0.118,0.172-0.063,0.261l2.107,3.443C154.708,47.8,154.77,47.834,154.835,47.834z" class="color000000 svgShape"/></g><g class="color000000 svgShape"><path fill="#d7e9f2" d="M152.915,42.049c-0.061-0.023-0.117-0.048-0.174-0.072c-0.299-1.683-0.87-3.18-0.87-3.18
									s2.437-0.521,3.694-1.621C155.565,37.175,155.807,43.149,152.915,42.049z" class="colord7e4f2 svgShape"/></g><g class="color000000 svgShape"><path fill="#fff" d="M136.937,50.333c-2.303-5.487-8.618-8.069-14.106-5.765c-5.487,2.303-8.069,8.618-5.766,14.106
										c2.303,5.487,8.618,8.069,14.106,5.766C136.659,62.136,139.24,55.821,136.937,50.333z" class="colorffffff svgShape"/><path d="M127.002,65.475c-1.405,0-2.81-0.274-4.149-0.821c-2.711-1.108-4.829-3.206-5.962-5.907
										c-2.34-5.575,0.292-12.015,5.867-14.354c2.7-1.133,5.681-1.148,8.392-0.039c2.711,1.108,4.829,3.206,5.962,5.906l0,0
										c1.134,2.701,1.147,5.681,0.039,8.392c-1.108,2.711-3.206,4.829-5.907,5.962C129.879,65.188,128.44,65.475,127.002,65.475z
										 M126.987,43.918c-1.364,0-2.749,0.265-4.083,0.825c-5.382,2.259-7.923,8.475-5.664,13.857
										c1.094,2.607,3.138,4.632,5.756,5.702c2.618,1.07,5.495,1.056,8.102-0.038c2.607-1.094,4.632-3.138,5.702-5.756
										c1.07-2.617,1.056-5.494-0.038-8.102l0,0C135.063,46.359,131.125,43.918,126.987,43.918z" class="color000000 svgShape"/><path fill="#d7e9f2" d="M135.216,53.356c-1.42-3.382-3.878,0.039-7.961,1.753c-4.084,1.714-8.247,1.072-6.827,4.454
										c1.42,3.382,5.881,4.735,9.965,3.021C134.476,60.87,136.636,56.738,135.216,53.356z" class="colord7e4f2 svgShape"/><g class="color000000 svgShape"><path fill="#6cf" d="M134.987,57.354c-0.783,2.007-3.045,3-5.053,2.217c-2.007-0.783-3-3.045-2.217-5.053
											c0.783-2.007,3.045-3,5.053-2.217S135.77,55.347,134.987,57.354z" class="color8abae7 svgShape"/><rect width="11.415" height="1.61" x="118.664" y="52.415" fill="#469dc8" class="color4666c8 svgShape" transform="rotate(21.31 124.375 53.221)"/><path fill="#469dc8" d="M134.081,57.001c-0.783,2.007-2.842,3.079-4.599,2.394c-1.757-0.685-2.547-2.868-1.764-4.876
											c0.783-2.007,2.842-3.079,4.599-2.394C134.074,52.811,134.864,54.994,134.081,57.001z" class="color4666c8 svgShape"/><path d="M127.667,53.747l-8.356-3.259c-0.051-0.02-0.076-0.077-0.056-0.128c0.02-0.051,0.077-0.076,0.128-0.056
											l8.356,3.259c0.051,0.02,0.076,0.077,0.056,0.128C127.775,53.742,127.717,53.767,127.667,53.747z" class="color000000 svgShape"/><rect width="1.901" height="3.008" x="118.735" y="50.638" fill="#469dc8" class="color4666c8 svgShape" transform="rotate(21.31 119.69 52.144)"/><rect width="1.178" height="2.297" x="120.66" y="51.222" fill="#469dc8" class="color4666c8 svgShape" transform="rotate(21.31 121.253 52.372)"/><path fill="#fff" d="M127.783,54.377l-8.67-3.382c-0.051-0.02-0.076-0.077-0.056-0.128
											c0.02-0.051,0.077-0.076,0.128-0.056l8.67,3.382c0.051,0.02,0.076,0.077,0.056,0.128
											C127.891,54.372,127.834,54.397,127.783,54.377z" class="colorffffff svgShape"/><path d="M129.899,59.663c-2.055-0.802-3.074-3.125-2.273-5.18c0.802-2.055,3.125-3.074,5.18-2.273
											c2.055,0.802,3.075,3.125,2.273,5.18C134.278,59.445,131.954,60.465,129.899,59.663z M132.734,52.394
											c-1.954-0.762-4.163,0.207-4.925,2.161c-0.762,1.954,0.207,4.163,2.161,4.925c1.953,0.762,4.163-0.207,4.925-2.161
											C135.658,55.365,134.688,53.156,132.734,52.394z" class="color000000 svgShape"/><path d="M131.066,58.047l-0.932-0.364c-0.051-0.02-0.076-0.077-0.056-0.128l1.429-3.662
											c0.02-0.051,0.077-0.076,0.128-0.056l0.932,0.364c0.051,0.02,0.076,0.077,0.056,0.128l-1.429,3.662
											C131.174,58.042,131.117,58.067,131.066,58.047z M130.298,57.536l0.748,0.292l1.357-3.479l-0.749-0.292L130.298,57.536z" class="color000000 svgShape"/><path d="M119.989,53.98c-0.051-0.02-0.076-0.077-0.056-0.128l0.547-1.401c0.02-0.051,0.077-0.076,0.128-0.056
											c0.051,0.02,0.076,0.077,0.056,0.128l-0.547,1.401C120.097,53.975,120.04,54,119.989,53.98z" class="color000000 svgShape"/><path d="M126.789,55.019l-7.363-2.872c-0.051-0.02-0.076-0.077-0.056-0.128c0.02-0.051,0.077-0.076,0.128-0.056
											l7.363,2.872c0.051,0.02,0.076,0.077,0.056,0.128C126.897,55.014,126.84,55.039,126.789,55.019z" class="color000000 svgShape"/></g></g><g class="color000000 svgShape"><path fill="#fff" d="M125.047,60.084c0-3.082,2.499-5.581,5.581-5.581c3.082,0,5.581,2.498,5.581,5.581
										c0,3.082-2.499,5.581-5.581,5.581C127.545,65.665,125.047,63.166,125.047,60.084z" class="colorffffff svgShape"/><path d="M124.857,60.084c0-3.182,2.589-5.771,5.77-5.771c3.182,0,5.771,2.589,5.771,5.771c0,3.182-2.589,5.771-5.771,5.771
										C127.446,65.855,124.857,63.266,124.857,60.084z M125.237,60.084c0,2.972,2.418,5.391,5.391,5.391
										c2.972,0,5.391-2.418,5.391-5.391c0-2.972-2.418-5.391-5.391-5.391C127.655,54.694,125.237,57.112,125.237,60.084z" class="color000000 svgShape"/><path fill="#fff" d="M130.628,65.665c-1.172-1.768,3.696-4.728,5.1-2.363C136.475,64.559,132.012,67.753,130.628,65.665z" class="colorffffff svgShape"/><path d="M130.469,65.77L130.469,65.77c-0.282-0.425-0.284-0.93-0.008-1.463c0.563-1.086,2.17-2.035,3.51-2.074
										c0.866-0.024,1.528,0.311,1.92,0.972c0.443,0.746-0.491,1.868-1.642,2.59c-0.676,0.424-1.504,0.753-2.249,0.753
										C131.393,66.548,130.841,66.33,130.469,65.77z M133.982,62.613c-1.198,0.035-2.686,0.908-3.184,1.869
										c-0.212,0.408-0.216,0.771-0.012,1.078c0.677,1.022,2.18,0.592,3.261-0.086c1.085-0.682,1.78-1.632,1.518-2.075
										c-0.382-0.643-1.017-0.787-1.509-0.787C134.031,62.612,134.006,62.612,133.982,62.613z M130.626,65.665h0.002H130.626z" class="color000000 svgShape"/><path fill="#3eb7f4" d="M133.291,53.672l20.043-0.825c0,0,10.965-8.214,15.563-9.167c4.598-0.953,14.148,3.884,9.668,11.536
										c-4.48,7.652-19.395,14.661-44.351,10.578C134.214,65.793,133.134,60.626,133.291,53.672z" class="colorf47a3e svgShape"/><path d="M137.87,66.512c0.002,0,0.005,0,0.007,0c0.105-0.004,0.187-0.092,0.183-0.197l-0.455-12.82
										c-0.003-0.103-0.088-0.183-0.189-0.183c-0.002,0-0.005,0-0.007,0c-0.105,0.004-0.187,0.092-0.183,0.197l0.455,12.82
										C137.684,66.431,137.769,66.512,137.87,66.512z" class="color000000 svgShape"/><g class="color000000 svgShape"><path d="M154.888,66.856c0.005,0,0.011,0,0.016-0.001c10.171-0.843,16.327-4.4,19.7-7.236
										c3.667-3.082,4.901-5.925,4.952-6.044c0.041-0.097-0.004-0.208-0.101-0.249c-0.097-0.041-0.208,0.004-0.249,0.1
										c-0.012,0.029-1.26,2.894-4.866,5.918c-3.33,2.793-9.411,6.298-19.468,7.132c-0.104,0.009-0.182,0.1-0.174,0.205
										C154.707,66.782,154.79,66.856,154.888,66.856z" class="color000000 svgShape"/></g><g class="color000000 svgShape"><path d="M142.699,53.474c0.003,0,0.005,0,0.008,0l10.635-0.438c0.033-0.001,0.066-0.011,0.094-0.029l13.637-8.646
										c0.089-0.056,0.115-0.174,0.059-0.262c-0.056-0.089-0.173-0.115-0.262-0.059l-13.594,8.618l-10.584,0.436
										c-0.105,0.004-0.186,0.093-0.182,0.198C142.514,53.394,142.598,53.474,142.699,53.474z" class="color000000 svgShape"/></g></g></g></g></switch></svg>